<svg version="1.0" preserveAspectRatio="xMidYMid meet" height="500" viewBox="0 0 1536 374.999991" zoomAndPan="magnify" width="2048" xmlns:xlink="http://www.w3.org/1999/xlink" xmlns="http://www.w3.org/2000/svg"><defs><g></g><clipPath id="d8b8426fc6"><rect height="259" y="0" width="1108" x="0"></rect></clipPath><clipPath id="ea55718367"><rect height="208" y="0" width="1112" x="0"></rect></clipPath></defs><g transform="matrix(1, 0, 0, 1, 399, 116)"><g clip-path="url(#d8b8426fc6)"><g fill-opacity="1" fill="#000000"><g transform="translate(1.061652, 178.820958)"><g><path d="M 51.96875 1.265625 C 51.03125 1.546875 48.972656 1.6875 45.796875 1.6875 C 36.054688 1.6875 28.304688 -0.0390625 22.546875 -3.5 C 16.785156 -6.96875 12.617188 -12.257812 10.046875 -19.375 C 7.472656 -26.5 6.1875 -35.820312 6.1875 -47.34375 C 6.1875 -58.851562 7.472656 -68.238281 10.046875 -75.5 C 12.617188 -82.757812 16.804688 -88.191406 22.609375 -91.796875 C 28.421875 -95.398438 36.148438 -97.203125 45.796875 -97.203125 C 55.441406 -97.203125 63.164062 -95.398438 68.96875 -91.796875 C 74.769531 -88.191406 78.957031 -82.734375 81.53125 -75.421875 C 84.113281 -68.117188 85.40625 -58.710938 85.40625 -47.203125 C 85.40625 -26.410156 80.488281 -12.410156 70.65625 -5.203125 L 82.3125 13.625 L 64.609375 21.90625 Z M 45.796875 -15.171875 C 50.847656 -15.171875 54.800781 -16.222656 57.65625 -18.328125 C 60.519531 -20.429688 62.535156 -23.773438 63.703125 -28.359375 C 64.867188 -32.953125 65.453125 -39.234375 65.453125 -47.203125 C 65.453125 -55.160156 64.84375 -61.523438 63.625 -66.296875 C 62.414062 -71.078125 60.378906 -74.613281 57.515625 -76.90625 C 54.660156 -79.195312 50.753906 -80.34375 45.796875 -80.34375 C 40.828125 -80.34375 36.914062 -79.195312 34.0625 -76.90625 C 31.207031 -74.613281 29.171875 -71.078125 27.953125 -66.296875 C 26.734375 -61.523438 26.125 -55.160156 26.125 -47.203125 C 26.125 -39.796875 26.640625 -33.820312 27.671875 -29.28125 C 28.703125 -24.738281 30.644531 -21.25 33.5 -18.8125 C 36.351562 -16.382812 40.453125 -15.171875 45.796875 -15.171875 Z M 45.796875 -15.171875"></path></g></g></g><g fill-opacity="1" fill="#000000"><g transform="translate(92.635935, 178.820958)"><g><path d="M 8.703125 0 Z M 8.703125 -70.234375 L 27.53125 -70.234375 L 27.53125 0 L 8.703125 0 Z M 8.703125 -98.1875 L 27.53125 -98.1875 L 27.53125 -79.21875 L 8.703125 -79.21875 Z M 8.703125 -98.1875"></path></g></g></g><g fill-opacity="1" fill="#000000"><g transform="translate(126.765516, 178.820958)"><g><path d="M 32.734375 0 L 19.53125 0 L 2.25 -70.234375 L 20.796875 -70.234375 L 33.578125 -16.015625 L 36.796875 -16.015625 L 49.578125 -70.234375 L 68.125 -70.234375 L 43.40625 29.5 L 25 29.5 Z M 32.734375 0"></path></g></g></g><g fill-opacity="1" fill="#000000"><g transform="translate(195.867527, 178.820958)"><g><path d="M 25.84375 1.6875 C 11.332031 1.6875 4.078125 -5.988281 4.078125 -21.34375 C 4.078125 -28.65625 6.019531 -33.925781 9.90625 -37.15625 C 13.789062 -40.382812 20.039062 -42.28125 28.65625 -42.84375 L 43.6875 -43.96875 L 43.6875 -48.328125 C 43.6875 -51.128906 43.050781 -53.09375 41.78125 -54.21875 C 40.519531 -55.34375 38.390625 -55.90625 35.390625 -55.90625 C 32.304688 -55.90625 28.046875 -55.785156 22.609375 -55.546875 C 17.179688 -55.316406 12.640625 -55.0625 8.984375 -54.78125 L 8.421875 -67.84375 C 18.535156 -70.5625 28.085938 -71.921875 37.078125 -71.921875 C 46.066406 -71.921875 52.550781 -70.046875 56.53125 -66.296875 C 60.519531 -62.554688 62.515625 -56.566406 62.515625 -48.328125 L 62.515625 -19.109375 C 62.703125 -16.765625 63.097656 -15.171875 63.703125 -14.328125 C 64.304688 -13.484375 65.453125 -12.875 67.140625 -12.5 L 66.578125 1.6875 C 61.710938 1.6875 57.847656 1.359375 54.984375 0.703125 C 52.128906 0.046875 49.300781 -1.265625 46.5 -3.234375 C 39.65625 0.046875 32.769531 1.6875 25.84375 1.6875 Z M 29.921875 -13.625 C 33.472656 -13.625 37.359375 -14.1875 41.578125 -15.3125 L 43.6875 -15.875 L 43.6875 -30.90625 L 30.90625 -29.78125 C 25.65625 -29.3125 23.03125 -26.5 23.03125 -21.34375 C 23.03125 -16.195312 25.328125 -13.625 29.921875 -13.625 Z M 29.921875 -13.625"></path></g></g></g><g fill-opacity="1" fill="#000000"><g transform="translate(267.638161, 178.820958)"><g><path d="M 8.703125 -70.234375 L 27.390625 -70.234375 L 27.390625 -66.296875 C 30.859375 -68.265625 33.878906 -69.691406 36.453125 -70.578125 C 39.023438 -71.472656 41.71875 -71.921875 44.53125 -71.921875 C 47.800781 -71.921875 50.957031 -71.378906 54 -70.296875 C 57.050781 -69.222656 59.5625 -67.5625 61.53125 -65.3125 C 65.925781 -67.5625 70.066406 -69.222656 73.953125 -70.296875 C 77.835938 -71.378906 81.796875 -71.921875 85.828125 -71.921875 C 94.535156 -71.921875 100.710938 -69.25 104.359375 -63.90625 C 108.015625 -58.570312 109.84375 -49.957031 109.84375 -38.0625 L 109.84375 0 L 91.03125 0 L 91.03125 -37.5 C 91.03125 -43.78125 90.328125 -48.273438 88.921875 -50.984375 C 87.515625 -53.703125 84.890625 -55.0625 81.046875 -55.0625 C 78.335938 -55.0625 74.734375 -54.40625 70.234375 -53.09375 L 68.125 -52.390625 C 68.5 -46.117188 68.6875 -40.78125 68.6875 -36.375 L 68.6875 0 L 49.859375 0 L 49.859375 -36.09375 C 49.859375 -41.15625 49.601562 -44.992188 49.09375 -47.609375 C 48.582031 -50.234375 47.597656 -52.128906 46.140625 -53.296875 C 44.691406 -54.472656 42.515625 -55.0625 39.609375 -55.0625 C 36.617188 -55.0625 33.15625 -54.40625 29.21875 -53.09375 L 27.53125 -52.53125 L 27.53125 0 L 8.703125 0 Z M 8.703125 -70.234375"></path></g></g></g><g fill-opacity="1" fill="#000000"><g transform="translate(385.476832, 178.820958)"><g></g></g></g><g fill-opacity="1" fill="#000000"><g transform="translate(416.376093, 178.820958)"><g><path d="M 59 -17.28125 L 25.5625 -17.28125 L 21.765625 0 L 2.390625 0 L 23.875 -95.515625 L 60.6875 -95.515625 L 82.171875 0 L 62.796875 0 Z M 45.65625 -79.5 L 38.90625 -79.5 L 29.21875 -34.140625 L 55.34375 -34.140625 Z M 45.65625 -79.5"></path></g></g></g><g fill-opacity="1" fill="#000000"><g transform="translate(500.927835, 178.820958)"><g><path d="M 64.75 -17.140625 L 64.75 0 L 10.390625 0 L 10.390625 -95.515625 L 29.78125 -95.515625 L 29.78125 -17.140625 Z M 64.75 -17.140625"></path></g></g></g><g fill-opacity="1" fill="#000000"><g transform="translate(560.478656, 178.820958)"><g><path d="M 7.859375 -45.9375 L 49.4375 -45.9375 L 49.4375 -28.796875 L 7.859375 -28.796875 Z M 7.859375 -45.9375"></path></g></g></g><g fill-opacity="1" fill="#000000"><g transform="translate(617.782783, 178.820958)"><g><path d="M 59 -17.28125 L 25.5625 -17.28125 L 21.765625 0 L 2.390625 0 L 23.875 -95.515625 L 60.6875 -95.515625 L 82.171875 0 L 62.796875 0 Z M 45.65625 -79.5 L 38.90625 -79.5 L 29.21875 -34.140625 L 55.34375 -34.140625 Z M 45.65625 -79.5"></path></g></g></g><g fill-opacity="1" fill="#000000"><g transform="translate(702.334525, 178.820958)"><g><path d="M 9.546875 -98.328125 L 28.375 -98.328125 L 28.375 0 L 9.546875 0 Z M 9.546875 -98.328125"></path></g></g></g><g fill-opacity="1" fill="#000000"><g transform="translate(740.256427, 178.820958)"><g><path d="M 25.84375 1.6875 C 11.332031 1.6875 4.078125 -5.988281 4.078125 -21.34375 C 4.078125 -28.65625 6.019531 -33.925781 9.90625 -37.15625 C 13.789062 -40.382812 20.039062 -42.28125 28.65625 -42.84375 L 43.6875 -43.96875 L 43.6875 -48.328125 C 43.6875 -51.128906 43.050781 -53.09375 41.78125 -54.21875 C 40.519531 -55.34375 38.390625 -55.90625 35.390625 -55.90625 C 32.304688 -55.90625 28.046875 -55.785156 22.609375 -55.546875 C 17.179688 -55.316406 12.640625 -55.0625 8.984375 -54.78125 L 8.421875 -67.84375 C 18.535156 -70.5625 28.085938 -71.921875 37.078125 -71.921875 C 46.066406 -71.921875 52.550781 -70.046875 56.53125 -66.296875 C 60.519531 -62.554688 62.515625 -56.566406 62.515625 -48.328125 L 62.515625 -19.109375 C 62.703125 -16.765625 63.097656 -15.171875 63.703125 -14.328125 C 64.304688 -13.484375 65.453125 -12.875 67.140625 -12.5 L 66.578125 1.6875 C 61.710938 1.6875 57.847656 1.359375 54.984375 0.703125 C 52.128906 0.046875 49.300781 -1.265625 46.5 -3.234375 C 39.65625 0.046875 32.769531 1.6875 25.84375 1.6875 Z M 29.921875 -13.625 C 33.472656 -13.625 37.359375 -14.1875 41.578125 -15.3125 L 43.6875 -15.875 L 43.6875 -30.90625 L 30.90625 -29.78125 C 25.65625 -29.3125 23.03125 -26.5 23.03125 -21.34375 C 23.03125 -16.195312 25.328125 -13.625 29.921875 -13.625 Z M 29.921875 -13.625"></path></g></g></g><g fill-opacity="1" fill="#000000"><g transform="translate(812.02706, 178.820958)"><g><path d="M 8.703125 -70.234375 L 27.390625 -70.234375 L 27.390625 -66.296875 C 30.859375 -68.265625 33.878906 -69.691406 36.453125 -70.578125 C 39.023438 -71.472656 41.71875 -71.921875 44.53125 -71.921875 C 47.800781 -71.921875 50.957031 -71.378906 54 -70.296875 C 57.050781 -69.222656 59.5625 -67.5625 61.53125 -65.3125 C 65.925781 -67.5625 70.066406 -69.222656 73.953125 -70.296875 C 77.835938 -71.378906 81.796875 -71.921875 85.828125 -71.921875 C 94.535156 -71.921875 100.710938 -69.25 104.359375 -63.90625 C 108.015625 -58.570312 109.84375 -49.957031 109.84375 -38.0625 L 109.84375 0 L 91.03125 0 L 91.03125 -37.5 C 91.03125 -43.78125 90.328125 -48.273438 88.921875 -50.984375 C 87.515625 -53.703125 84.890625 -55.0625 81.046875 -55.0625 C 78.335938 -55.0625 74.734375 -54.40625 70.234375 -53.09375 L 68.125 -52.390625 C 68.5 -46.117188 68.6875 -40.78125 68.6875 -36.375 L 68.6875 0 L 49.859375 0 L 49.859375 -36.09375 C 49.859375 -41.15625 49.601562 -44.992188 49.09375 -47.609375 C 48.582031 -50.234375 47.597656 -52.128906 46.140625 -53.296875 C 44.691406 -54.472656 42.515625 -55.0625 39.609375 -55.0625 C 36.617188 -55.0625 33.15625 -54.40625 29.21875 -53.09375 L 27.53125 -52.53125 L 27.53125 0 L 8.703125 0 Z M 8.703125 -70.234375"></path></g></g></g><g fill-opacity="1" fill="#000000"><g transform="translate(929.865732, 178.820958)"><g><path d="M 8.703125 0 Z M 8.703125 -70.234375 L 27.53125 -70.234375 L 27.53125 0 L 8.703125 0 Z M 8.703125 -98.1875 L 27.53125 -98.1875 L 27.53125 -79.21875 L 8.703125 -79.21875 Z M 8.703125 -98.1875"></path></g></g></g><g fill-opacity="1" fill="#000000"><g transform="translate(963.995313, 178.820958)"><g><path d="M 32.734375 0 L 19.53125 0 L 2.25 -70.234375 L 20.796875 -70.234375 L 33.578125 -16.015625 L 36.796875 -16.015625 L 49.578125 -70.234375 L 68.125 -70.234375 L 43.40625 29.5 L 25 29.5 Z M 32.734375 0"></path></g></g></g><g fill-opacity="1" fill="#000000"><g transform="translate(1033.097324, 178.820958)"><g><path d="M 25.84375 1.6875 C 11.332031 1.6875 4.078125 -5.988281 4.078125 -21.34375 C 4.078125 -28.65625 6.019531 -33.925781 9.90625 -37.15625 C 13.789062 -40.382812 20.039062 -42.28125 28.65625 -42.84375 L 43.6875 -43.96875 L 43.6875 -48.328125 C 43.6875 -51.128906 43.050781 -53.09375 41.78125 -54.21875 C 40.519531 -55.34375 38.390625 -55.90625 35.390625 -55.90625 C 32.304688 -55.90625 28.046875 -55.785156 22.609375 -55.546875 C 17.179688 -55.316406 12.640625 -55.0625 8.984375 -54.78125 L 8.421875 -67.84375 C 18.535156 -70.5625 28.085938 -71.921875 37.078125 -71.921875 C 46.066406 -71.921875 52.550781 -70.046875 56.53125 -66.296875 C 60.519531 -62.554688 62.515625 -56.566406 62.515625 -48.328125 L 62.515625 -19.109375 C 62.703125 -16.765625 63.097656 -15.171875 63.703125 -14.328125 C 64.304688 -13.484375 65.453125 -12.875 67.140625 -12.5 L 66.578125 1.6875 C 61.710938 1.6875 57.847656 1.359375 54.984375 0.703125 C 52.128906 0.046875 49.300781 -1.265625 46.5 -3.234375 C 39.65625 0.046875 32.769531 1.6875 25.84375 1.6875 Z M 29.921875 -13.625 C 33.472656 -13.625 37.359375 -14.1875 41.578125 -15.3125 L 43.6875 -15.875 L 43.6875 -30.90625 L 30.90625 -29.78125 C 25.65625 -29.3125 23.03125 -26.5 23.03125 -21.34375 C 23.03125 -16.195312 25.328125 -13.625 29.921875 -13.625 Z M 29.921875 -13.625"></path></g></g></g></g></g><g transform="matrix(1, 0, 0, 1, 397, 0)"><g clip-path="url(#ea55718367)"><g fill-opacity="1" fill="#000000"><g transform="translate(1.636512, 139.972998)"><g><path d="M 4.453125 0 Z M 73.5625 -13.578125 L 73.5625 0 L 34.28125 0 C 26.925781 0 21.132812 -0.773438 16.90625 -2.328125 C 12.6875 -3.890625 9.554688 -6.726562 7.515625 -10.84375 C 5.472656 -14.96875 4.453125 -20.960938 4.453125 -28.828125 C 4.453125 -36.316406 5.414062 -42.046875 7.34375 -46.015625 C 9.269531 -49.984375 12.382812 -52.765625 16.6875 -54.359375 C 20.988281 -55.953125 27.035156 -56.75 34.828125 -56.75 C 38.984375 -56.75 43.953125 -56.597656 49.734375 -56.296875 C 55.523438 -56.003906 59.609375 -55.675781 61.984375 -55.3125 L 61.984375 -13.578125 Z M 19.359375 -28.828125 C 19.359375 -24.671875 19.894531 -21.5 20.96875 -19.3125 C 22.050781 -17.125 23.703125 -15.617188 25.921875 -14.796875 C 28.148438 -13.984375 31.191406 -13.578125 35.046875 -13.578125 L 47.078125 -13.578125 L 47.078125 -42.625 C 43.367188 -42.988281 39.472656 -43.171875 35.390625 -43.171875 C 31.304688 -43.171875 28.132812 -42.765625 25.875 -41.953125 C 23.613281 -41.140625 21.960938 -39.710938 20.921875 -37.671875 C 19.878906 -35.628906 19.359375 -32.679688 19.359375 -28.828125 Z M 21.921875 -79.90625 L 33.375 -79.90625 L 33.375 -66 L 21.921875 -66 Z M 38.828125 -79.90625 L 50.296875 -79.90625 L 50.296875 -66 L 38.828125 -66 Z M 38.828125 -79.90625"></path></g></g></g><g fill-opacity="1" fill="#000000"><g transform="translate(75.191618, 139.972998)"><g><path d="M 0 -13.578125 L 27.8125 -13.578125 L 27.8125 0 L 0 0 Z M 0 -13.578125"></path></g></g></g><g fill-opacity="1" fill="#000000"><g transform="translate(103.01129, 139.972998)"><g><path d="M 0 0 Z M 48.1875 -13.578125 L 48.1875 0 L 0 0 L 0 -13.578125 L 16.578125 -13.578125 L 16.578125 -55.640625 L 31.5 -55.640625 L 31.5 -13.578125 Z M 9.6875 8.90625 L 21.140625 8.90625 L 21.140625 22.8125 L 9.6875 22.8125 Z M 26.59375 8.90625 L 38.0625 8.90625 L 38.0625 22.8125 L 26.59375 22.8125 Z M 26.59375 8.90625"></path></g></g></g><g fill-opacity="1" fill="#000000"><g transform="translate(151.1949, 139.972998)"><g><path d="M 0 -13.578125 L 27.8125 -13.578125 L 27.8125 0 L 0 0 Z M 0 -13.578125"></path></g></g></g><g fill-opacity="1" fill="#000000"><g transform="translate(179.014572, 139.972998)"><g><path d="M 0 -13.578125 L 27.8125 -13.578125 L 27.8125 0 L 0 0 Z M 0 -13.578125"></path></g></g></g><g fill-opacity="1" fill="#000000"><g transform="translate(206.834243, 139.972998)"><g><path d="M 0 -13.578125 L 27.8125 -13.578125 L 27.8125 0 L 0 0 Z M 0 -13.578125"></path></g></g></g><g fill-opacity="1" fill="#000000"><g transform="translate(234.653915, 139.972998)"><g><path d="M 82.125 -13.578125 L 82.125 0 L 76 0 C 74.738281 0 73.550781 -0.441406 72.4375 -1.328125 C 71.332031 -2.222656 70.519531 -3.375 70 -4.78125 L 70 0 L 0 0 L 0 -13.578125 L 17.359375 -13.578125 C 16.316406 -18.921875 15.796875 -23.628906 15.796875 -27.703125 C 15.796875 -31.785156 16.203125 -36.160156 17.015625 -40.828125 C 17.835938 -45.503906 18.769531 -49.550781 19.8125 -52.96875 C 21.8125 -53.9375 24.773438 -54.789062 28.703125 -55.53125 C 32.640625 -56.269531 37.019531 -56.640625 41.84375 -56.640625 C 49.476562 -56.640625 55.351562 -55.523438 59.46875 -53.296875 C 63.59375 -51.078125 66.378906 -47.925781 67.828125 -43.84375 C 69.273438 -39.757812 70 -34.414062 70 -27.8125 L 70 -18.359375 C 70.519531 -16.878906 71.332031 -15.710938 72.4375 -14.859375 C 73.550781 -14.003906 74.738281 -13.578125 76 -13.578125 Z M 30.265625 -27.703125 C 30.265625 -25.179688 30.429688 -22.601562 30.765625 -19.96875 C 31.097656 -17.34375 31.453125 -15.210938 31.828125 -13.578125 L 55.078125 -13.578125 L 55.078125 -28.15625 C 55.078125 -33.34375 54.054688 -37.160156 52.015625 -39.609375 C 49.984375 -42.054688 46.070312 -43.28125 40.28125 -43.28125 C 37.46875 -43.28125 34.648438 -42.984375 31.828125 -42.390625 C 30.785156 -36.828125 30.265625 -31.929688 30.265625 -27.703125 Z M 30.265625 -27.703125"></path></g></g></g><g fill-opacity="1" fill="#000000"><g transform="translate(316.777475, 139.972998)"><g><path d="M 0 -13.578125 L 27.8125 -13.578125 L 27.8125 0 L 0 0 Z M 0 -13.578125"></path></g></g></g><g fill-opacity="1" fill="#000000"><g transform="translate(344.597147, 139.972998)"><g><path d="M 0 -13.578125 L 27.8125 -13.578125 L 27.8125 0 L 0 0 Z M 0 -13.578125"></path></g></g></g><g fill-opacity="1" fill="#000000"><g transform="translate(372.416819, 139.972998)"><g><path d="M 28.59375 -77.890625 L 28.59375 0 L 0 0 L 0 -13.578125 L 13.6875 -13.578125 L 13.6875 -77.890625 Z M 28.59375 -77.890625"></path></g></g></g><g fill-opacity="1" fill="#000000"><g transform="translate(409.914559, 139.972998)"><g><path d="M 34.71875 -13.578125 L 34.71875 0 L 8.90625 0 L 8.90625 -77.890625 L 23.8125 -77.890625 L 23.8125 -13.578125 Z M 34.71875 -13.578125"></path></g></g></g><g fill-opacity="1" fill="#000000"><g transform="translate(444.633445, 139.972998)"><g><path d="M 74.109375 -13.578125 L 74.109375 0 L 59.53125 0 C 55.820312 0 52.054688 -0.425781 48.234375 -1.28125 C 44.421875 -2.132812 40.84375 -3.300781 37.5 -4.78125 C 34.164062 -3.300781 30.625 -2.132812 26.875 -1.28125 C 23.125 -0.425781 19.546875 0 16.140625 0 L 0 0 L 0 -13.578125 L 15.796875 -13.578125 C 18.097656 -13.578125 20.625 -13.875 23.375 -14.46875 C 18.101562 -19.21875 14.113281 -23.410156 11.40625 -27.046875 C 8.695312 -30.679688 7.34375 -34.5 7.34375 -38.5 L 7.015625 -48.296875 C 10.492188 -50.523438 15.050781 -52.523438 20.6875 -54.296875 C 26.332031 -56.078125 31.898438 -56.96875 37.390625 -56.96875 C 42.804688 -56.96875 48.390625 -56.078125 54.140625 -54.296875 C 59.890625 -52.523438 64.582031 -50.523438 68.21875 -48.296875 L 67.765625 -38.5 C 67.765625 -34.425781 66.410156 -30.609375 63.703125 -27.046875 C 60.992188 -23.484375 57.007812 -19.289062 51.75 -14.46875 C 54.488281 -13.875 57.046875 -13.578125 59.421875 -13.578125 Z M 37.609375 -20.25 C 43.097656 -23.664062 47.125 -27.15625 49.6875 -30.71875 C 52.25 -34.28125 53.53125 -37.582031 53.53125 -40.625 C 48.039062 -42.476562 42.695312 -43.40625 37.5 -43.40625 C 32.382812 -43.40625 27.15625 -42.476562 21.8125 -40.625 C 21.8125 -37.5 23.144531 -34.082031 25.8125 -30.375 C 28.488281 -26.664062 32.421875 -23.289062 37.609375 -20.25 Z M 37.609375 -20.25"></path></g></g></g><g fill-opacity="1" fill="#000000"><g transform="translate(518.744912, 139.972998)"><g><path d="M 0 -13.578125 L 27.8125 -13.578125 L 27.8125 0 L 0 0 Z M 0 -13.578125"></path></g></g></g><g fill-opacity="1" fill="#000000"><g transform="translate(546.564584, 139.972998)"><g><path d="M 0 -13.578125 L 27.8125 -13.578125 L 27.8125 0 L 0 0 Z M 0 -13.578125"></path></g></g></g><g fill-opacity="1" fill="#000000"><g transform="translate(574.384256, 139.972998)"><g><path d="M 28.59375 -77.890625 L 28.59375 0 L 0 0 L 0 -13.578125 L 13.6875 -13.578125 L 13.6875 -77.890625 Z M 28.59375 -77.890625"></path></g></g></g><g fill-opacity="1" fill="#000000"><g transform="translate(611.881996, 139.972998)"><g><path d="M 8.90625 -77.890625 L 23.8125 -77.890625 L 23.8125 0 L 8.90625 0 Z M 8.90625 -77.890625"></path></g></g></g><g fill-opacity="1" fill="#000000"><g transform="translate(645.707872, 139.972998)"><g></g></g></g><g fill-opacity="1" fill="#000000"><g transform="translate(670.187075, 139.972998)"><g><path d="M 78.890625 -13.578125 L 78.890625 0 L 72.78125 0 C 71.519531 0 70.332031 -0.441406 69.21875 -1.328125 C 68.101562 -2.222656 67.285156 -3.375 66.765625 -4.78125 L 66.765625 0 L 30.71875 0 C 27.445312 0 24.550781 1.054688 22.03125 3.171875 C 19.507812 5.285156 18.25 9.347656 18.25 15.359375 C 18.25 19.953125 19.25 26.851562 21.25 36.0625 L 8.5625 36.5 C 7.53125 31.976562 6.585938 27.0625 5.734375 21.75 C 4.878906 16.445312 4.453125 12.015625 4.453125 8.453125 C 4.453125 3.265625 5.394531 -0.941406 7.28125 -4.171875 C 9.175781 -7.398438 11.609375 -9.789062 14.578125 -11.34375 C 13.242188 -16.988281 12.578125 -22.441406 12.578125 -27.703125 C 12.578125 -31.785156 12.984375 -36.160156 13.796875 -40.828125 C 14.609375 -45.503906 15.535156 -49.550781 16.578125 -52.96875 C 18.578125 -53.9375 21.539062 -54.789062 25.46875 -55.53125 C 29.40625 -56.269531 33.785156 -56.640625 38.609375 -56.640625 C 46.253906 -56.640625 52.132812 -55.523438 56.25 -53.296875 C 60.363281 -51.078125 63.144531 -47.925781 64.59375 -43.84375 C 66.039062 -39.757812 66.765625 -34.414062 66.765625 -27.8125 L 66.765625 -18.359375 C 67.285156 -16.878906 68.101562 -15.710938 69.21875 -14.859375 C 70.332031 -14.003906 71.519531 -13.578125 72.78125 -13.578125 Z M 51.859375 -13.578125 L 51.859375 -28.15625 C 51.859375 -33.34375 50.835938 -37.160156 48.796875 -39.609375 C 46.753906 -42.054688 42.84375 -43.28125 37.0625 -43.28125 C 34.238281 -43.28125 31.414062 -42.984375 28.59375 -42.390625 C 27.5625 -36.828125 27.046875 -31.929688 27.046875 -27.703125 C 27.046875 -25.179688 27.210938 -22.601562 27.546875 -19.96875 C 27.878906 -17.34375 28.226562 -15.210938 28.59375 -13.578125 Z M 51.859375 -13.578125"></path></g></g></g><g fill-opacity="1" fill="#000000"><g transform="translate(749.083524, 139.972998)"><g><path d="M 0 -13.578125 L 27.8125 -13.578125 L 27.8125 0 L 0 0 Z M 0 -13.578125"></path></g></g></g><g fill-opacity="1" fill="#000000"><g transform="translate(776.903196, 139.972998)"><g><path d="M 0 -13.578125 L 27.8125 -13.578125 L 27.8125 0 L 0 0 Z M 0 -13.578125"></path></g></g></g><g fill-opacity="1" fill="#000000"><g transform="translate(804.722868, 139.972998)"><g><path d="M 0 0 Z M 48.1875 -13.578125 L 48.1875 0 L 0 0 L 0 -13.578125 L 16.578125 -13.578125 L 16.578125 -55.640625 L 31.5 -55.640625 L 31.5 -13.578125 Z M 9.6875 8.90625 L 21.140625 8.90625 L 21.140625 22.8125 L 9.6875 22.8125 Z M 26.59375 8.90625 L 38.0625 8.90625 L 38.0625 22.8125 L 26.59375 22.8125 Z M 26.59375 8.90625"></path></g></g></g><g fill-opacity="1" fill="#000000"><g transform="translate(852.906478, 139.972998)"><g><path d="M 0 0 Z M 72.78125 -13.578125 L 72.78125 0 L 0 0 L 0 -13.578125 L 11.90625 -13.578125 C 10.644531 -18.097656 10.015625 -23.21875 10.015625 -28.9375 C 10.015625 -35.6875 11.070312 -40.988281 13.1875 -44.84375 C 15.300781 -48.707031 18.507812 -51.453125 22.8125 -53.078125 C 27.113281 -54.710938 32.789062 -55.53125 39.84375 -55.53125 C 46.070312 -55.53125 51.523438 -55.269531 56.203125 -54.75 L 61.984375 -54.078125 L 61.984375 -13.578125 Z M 25.15625 -26.15625 C 25.15625 -23.332031 25.335938 -21.046875 25.703125 -19.296875 C 26.078125 -17.554688 26.597656 -15.648438 27.265625 -13.578125 L 47.078125 -13.578125 L 47.078125 -41.953125 C 43.804688 -42.171875 41.242188 -42.28125 39.390625 -42.28125 C 35.390625 -42.28125 32.40625 -41.832031 30.4375 -40.9375 C 28.46875 -40.050781 27.09375 -38.492188 26.3125 -36.265625 C 25.539062 -34.046875 25.15625 -30.675781 25.15625 -26.15625 Z M 25.15625 -79.90625 L 36.609375 -79.90625 L 36.609375 -66 L 25.15625 -66 Z M 42.0625 -79.90625 L 53.53125 -79.90625 L 53.53125 -66 L 42.0625 -66 Z M 42.0625 -79.90625"></path></g></g></g><g fill-opacity="1" fill="#000000"><g transform="translate(925.682648, 139.972998)"><g><path d="M 0 -13.578125 L 27.8125 -13.578125 L 27.8125 0 L 0 0 Z M 0 -13.578125"></path></g></g></g><g fill-opacity="1" fill="#000000"><g transform="translate(953.50232, 139.972998)"><g><path d="M 0 -13.578125 L 27.8125 -13.578125 L 27.8125 0 L 0 0 Z M 0 -13.578125"></path></g></g></g><g fill-opacity="1" fill="#000000"><g transform="translate(981.321992, 139.972998)"><g><path d="M 0 -13.578125 L 27.8125 -13.578125 L 27.8125 0 L 0 0 Z M 0 -13.578125"></path></g></g></g><g fill-opacity="1" fill="#000000"><g transform="translate(1009.141664, 139.972998)"><g><path d="M 0 -13.578125 L 27.8125 -13.578125 L 27.8125 0 L 0 0 Z M 0 -13.578125"></path></g></g></g><g fill-opacity="1" fill="#000000"><g transform="translate(1036.961335, 139.972998)"><g><path d="M 28.59375 -77.890625 L 28.59375 0 L 0 0 L 0 -13.578125 L 13.6875 -13.578125 L 13.6875 -77.890625 Z M 28.59375 -77.890625"></path></g></g></g><g fill-opacity="1" fill="#000000"><g transform="translate(1074.459076, 139.972998)"><g><path d="M 8.90625 -77.890625 L 23.8125 -77.890625 L 23.8125 0 L 8.90625 0 Z M 8.90625 -77.890625"></path></g></g></g></g></g><path fill-rule="nonzero" fill-opacity="1" d="M 303.160156 99.328125 C 294.328125 108.929688 286.257812 119.167969 278.984375 130.011719 C 272.382812 139.832031 266.578125 150.070312 261.285156 160.660156 C 260.550781 162.09375 260.773438 162.703125 262.304688 163.339844 C 279.144531 170.039062 296.433594 175.300781 314.101562 179.253906 C 323.160156 181.261719 332.28125 182.890625 341.496094 184.132812 C 349.121094 185.1875 356.742188 186.046875 364.398438 186.527344 L 364.398438 48.839844 C 352.757812 55.984375 341.722656 63.925781 331.164062 72.632812 C 321.214844 80.863281 311.898438 89.792969 303.160156 99.328125 Z M 303.160156 99.328125" fill="#0787ea"></path><path fill-rule="nonzero" fill-opacity="1" d="M 329.570312 45.652344 C 315.886719 50.5625 302.554688 56.273438 289.605469 62.96875 C 275.765625 70.113281 262.496094 78.246094 249.867188 87.367188 C 239.949219 94.546875 230.507812 102.296875 221.609375 110.746094 C 215.136719 116.933594 208.789062 123.25 202.792969 129.945312 C 201.996094 130.839844 201.898438 131.316406 203.015625 132.019531 C 206.9375 134.445312 210.734375 137.058594 214.6875 139.484375 C 226.011719 146.46875 237.746094 152.589844 249.867188 158.046875 C 250.984375 158.554688 251.621094 158.429688 252.164062 157.3125 C 252.800781 155.972656 253.535156 154.695312 254.238281 153.386719 C 264.285156 135.144531 276.5625 118.496094 290.722656 103.285156 C 301.3125 91.898438 312.792969 81.5 325.105469 72.027344 C 336.808594 63.035156 349.089844 54.902344 362.003906 47.820312 C 362.867188 47.34375 363.664062 46.894531 364.367188 46.417969 L 364.367188 35.414062 C 363.089844 35.734375 361.8125 36.050781 360.539062 36.371094 C 350.078125 38.890625 339.742188 42.015625 329.570312 45.652344 Z M 329.570312 45.652344" fill="#0787ea"></path><path fill-rule="nonzero" fill-opacity="1" d="M 181.839844 138.75 C 182.03125 138.496094 182.285156 138.269531 182.316406 137.792969 C 182.285156 137.441406 181.871094 137.28125 181.582031 137.058594 C 180.785156 136.484375 179.957031 135.941406 179.09375 135.433594 C 169.527344 129.371094 160.628906 122.355469 152.050781 114.957031 C 147.742188 111.257812 143.4375 107.527344 139.453125 103.476562 C 138.84375 102.871094 138.335938 102.488281 137.539062 103.25 C 134.222656 106.28125 130.746094 109.214844 127.492188 112.308594 C 114.289062 124.941406 102.421875 138.71875 92.089844 153.804688 C 81.949219 168.601562 73.496094 184.261719 66.828125 200.910156 C 60.898438 215.707031 56.558594 230.953125 53.847656 246.675781 C 53.59375 248.050781 53.945312 248.304688 55.09375 248.621094 C 68.105469 252.257812 81.214844 255.480469 94.355469 258.636719 C 105.929688 261.414062 117.539062 264.027344 129.183594 266.546875 C 130.488281 266.835938 130.519531 266.292969 130.554688 265.398438 C 131.09375 257.171875 132.308594 249.039062 133.902344 240.9375 C 137.921875 220.523438 144.683594 201.039062 153.929688 182.445312 C 161.714844 166.910156 171.089844 152.398438 181.839844 138.75 Z M 181.839844 138.75" fill="#0787ea"></path><path fill-rule="nonzero" fill-opacity="1" d="M 242.820312 286.003906 C 245.59375 286.066406 248.335938 286.640625 251.078125 286.992188 C 255.257812 287.53125 259.402344 288.074219 263.582031 288.554688 C 266.898438 288.9375 270.214844 289.253906 273.53125 289.636719 C 277.105469 290.050781 280.675781 290.5 284.28125 290.882812 C 288.042969 291.265625 291.808594 291.519531 295.539062 291.933594 C 300.035156 292.445312 304.566406 292.859375 309.09375 293.210938 C 312.027344 293.433594 314.992188 293.65625 317.929688 293.910156 C 322.933594 294.328125 327.976562 294.804688 332.980469 295.1875 C 337.097656 295.476562 341.210938 295.664062 345.292969 295.921875 C 351.671875 296.335938 358.050781 296.71875 364.429688 297.195312 L 364.429688 191.085938 C 357.414062 191.183594 350.363281 190.960938 343.347656 190.511719 C 335.308594 190.003906 327.304688 189.109375 319.300781 188.121094 C 310.335938 187.003906 301.4375 185.570312 292.636719 183.625 C 282.496094 181.390625 272.417969 178.96875 262.59375 175.554688 C 260.742188 174.917969 258.828125 174.4375 256.980469 173.832031 C 256.246094 173.609375 255.832031 173.832031 255.542969 174.535156 C 253.023438 180.625 250.695312 186.78125 248.78125 193.097656 C 242.339844 214.304688 239.054688 235.992188 239.023438 258.160156 C 239.023438 266.644531 239.597656 275.09375 240.394531 283.546875 C 240.523438 285.140625 240.90625 285.96875 242.820312 286.003906 Z M 242.820312 286.003906" fill="#0787ea"></path><path fill-rule="nonzero" fill-opacity="1" d="M 230.222656 216.601562 C 233.570312 201.355469 238.511719 186.621094 244.734375 172.300781 C 245.847656 169.6875 245.878906 169.65625 243.265625 168.730469 C 232.867188 165.15625 222.917969 160.5 213.09375 155.621094 C 206.238281 152.242188 199.570312 148.445312 192.96875 144.585938 C 192.140625 144.109375 191.757812 144.140625 191.246094 144.808594 C 189.300781 147.425781 187.261719 150.007812 185.410156 152.6875 C 178.808594 162.222656 172.84375 172.175781 167.644531 182.570312 C 161.585938 194.660156 156.609375 207.191406 152.71875 220.140625 C 149.785156 229.902344 147.550781 239.820312 145.925781 249.867188 C 145 255.703125 144.332031 261.605469 143.820312 267.949219 C 143.40625 269.128906 144.234375 269.703125 145.734375 269.929688 C 147.679688 270.214844 149.59375 270.660156 151.539062 271.011719 C 160.023438 272.605469 168.507812 274.234375 177.023438 275.734375 C 185.15625 277.199219 193.289062 278.570312 201.421875 279.910156 C 209.074219 281.15625 216.761719 282.269531 224.449219 283.484375 C 225.53125 283.640625 226.074219 283.546875 225.945312 282.238281 C 225.660156 278.730469 225.339844 275.222656 225.277344 271.714844 C 225.085938 261.09375 225.277344 250.503906 226.488281 239.914062 C 227.320312 232.101562 228.53125 224.320312 230.222656 216.601562 Z M 230.222656 216.601562" fill="#0787ea"></path><path fill-rule="nonzero" fill-opacity="1" d="M 134.730469 330.941406 C 131.574219 316.460938 130.011719 301.820312 129.660156 287.054688 C 129.566406 283.675781 129.597656 283.738281 126.34375 283.226562 C 119.933594 282.269531 113.554688 281.347656 107.175781 280.230469 C 98.882812 278.792969 90.621094 277.199219 82.363281 275.636719 C 72.441406 273.753906 62.523438 271.875 52.699219 269.578125 C 51.425781 269.289062 51.265625 269.578125 51.171875 270.726562 C 50.753906 277.871094 50.5625 285.011719 50.851562 292.191406 C 51.234375 301.597656 52.128906 310.910156 53.65625 320.160156 C 55.570312 331.863281 58.503906 343.347656 62.171875 354.636719 C 62.523438 355.722656 63.003906 356.007812 64.117188 356.007812 C 76.71875 355.976562 89.347656 355.976562 101.945312 355.976562 C 114.445312 355.976562 126.949219 355.976562 139.453125 355.976562 C 141.683594 355.976562 141.714844 355.976562 141.046875 353.96875 C 138.527344 346.410156 136.453125 338.753906 134.730469 330.941406 Z M 134.730469 330.941406" fill="#0787ea"></path><path fill-rule="nonzero" fill-opacity="1" d="M 231.367188 316.492188 C 229.839844 310.144531 228.625 303.765625 227.476562 297.324219 C 227.253906 296.113281 226.808594 295.730469 225.5625 295.730469 C 223.808594 295.761719 222.054688 295.601562 220.332031 295.410156 C 215.582031 294.902344 210.828125 294.328125 206.046875 293.816406 C 201.453125 293.335938 196.828125 292.953125 192.203125 292.445312 C 187.132812 291.871094 182.0625 291.136719 176.992188 290.5 C 171.601562 289.828125 166.179688 289.191406 160.789062 288.488281 C 155.460938 287.757812 150.136719 287.054688 144.808594 286.128906 C 143.277344 285.875 143.375 286.449219 143.40625 287.5 C 143.46875 292.605469 143.628906 297.707031 144.078125 302.808594 C 144.585938 308.613281 145.257812 314.386719 146.214844 320.097656 C 148.160156 331.769531 151.027344 343.25 154.695312 354.507812 C 155.046875 355.59375 155.496094 356.007812 156.707031 356.007812 C 171.089844 355.945312 185.441406 355.976562 199.828125 355.976562 C 213.828125 355.976562 227.796875 355.976562 241.796875 355.976562 C 244.921875 355.976562 244.890625 355.976562 243.585938 353.042969 C 238.417969 341.273438 234.398438 329.058594 231.367188 316.492188 Z M 231.367188 316.492188" fill="#0787ea"></path><path fill-rule="nonzero" fill-opacity="1" d="M 266.675781 36.785156 C 256.375 39.335938 246.167969 42.398438 236.183594 46.066406 C 225.722656 49.894531 215.390625 54.070312 205.34375 58.953125 C 196.253906 63.351562 187.417969 68.136719 178.746094 73.335938 C 170.644531 78.214844 162.863281 83.542969 155.015625 88.804688 C 153.996094 89.472656 153.613281 89.984375 154.730469 90.941406 C 155.8125 91.867188 156.675781 93.015625 157.695312 94.066406 C 164.839844 101.464844 172.367188 108.484375 180.339844 115.019531 C 184.132812 118.113281 188.058594 121.015625 191.851562 124.109375 C 193.097656 125.132812 193.832031 124.972656 194.785156 123.792969 C 195.808594 122.515625 196.988281 121.335938 198.136719 120.15625 C 210.289062 107.492188 223.492188 96.074219 237.78125 85.902344 C 257.679688 71.710938 278.984375 60.035156 301.664062 50.851562 C 321.628906 42.75 342.105469 36.464844 363.25 32.351562 C 363.695312 32.257812 364.078125 32.191406 364.429688 32.128906 L 364.429688 25.847656 C 331.546875 25.8125 298.601562 28.875 266.675781 36.785156 Z M 266.675781 36.785156" fill="#0787ea"></path><path fill-rule="nonzero" fill-opacity="1" d="M 335.085938 301.820312 C 329.058594 301.597656 323 301.726562 316.941406 301.4375 C 314.738281 301.34375 312.539062 301.214844 310.371094 301.214844 C 303.160156 301.214844 296.050781 300.257812 288.875 300.132812 C 286.289062 300.066406 283.738281 300.035156 281.15625 299.875 C 274.042969 299.492188 266.960938 298.984375 259.882812 298.535156 C 254.460938 298.21875 249.101562 297.675781 243.710938 297.164062 C 243.042969 297.101562 242.5625 297.039062 242.820312 298.089844 C 243.394531 300.609375 243.710938 303.160156 244.253906 305.710938 C 247.859375 322.617188 253.503906 338.851562 260.808594 354.507812 C 261.382812 355.722656 261.921875 356.039062 263.199219 356.039062 C 280.101562 356.007812 297.007812 356.007812 313.910156 356.007812 C 321.980469 356.007812 330.015625 356.007812 338.085938 356.007812 C 352.628906 356.007812 364.460938 344.238281 364.460938 329.664062 L 364.460938 301.980469 C 354.636719 302.042969 344.878906 302.203125 335.085938 301.820312 Z M 335.085938 301.820312" fill="#0787ea"></path><path fill-rule="nonzero" fill-opacity="1" d="M 64.277344 25.8125 C 48.875 25.8125 36.402344 38.285156 36.402344 53.6875 C 36.433594 103.125 36.433594 152.558594 36.433594 202.027344 C 37.234375 201.355469 37.359375 200.367188 37.710938 199.476562 C 40.421875 192.90625 43.355469 186.429688 46.578125 180.117188 C 52.734375 168.125 59.84375 156.738281 67.820312 145.894531 C 81.757812 126.980469 98.054688 110.332031 116.359375 95.597656 C 129.628906 84.945312 143.726562 75.535156 158.621094 67.308594 C 175.042969 58.21875 192.140625 50.660156 209.90625 44.503906 C 224.574219 39.402344 239.535156 35.542969 254.683594 32.382812 C 257.808594 31.746094 260.933594 31.109375 264.058594 30.535156 C 268.558594 29.707031 275.988281 28.589844 280.515625 28.109375 C 282.621094 27.886719 284.726562 27.601562 286.800781 27.378906 C 291.296875 26.898438 295.761719 26.355469 300.292969 26.195312 C 300.800781 26.164062 301.40625 26.484375 301.789062 25.847656 C 222.628906 25.8125 143.4375 25.8125 64.277344 25.8125 Z M 64.277344 25.8125" fill="#e41f1c"></path></svg>