<?xml version="1.0" encoding="utf-8"?>
<svg version="1.1" xmlns="http://www.w3.org/2000/svg" width="1439" height="361" xmlns:bx="https://boxy-svg.com" viewBox="0 0 1439 361"><defs><bx:export><bx:file format="svg"/></bx:export></defs><path d="M0 0 C0.6433882 -0.00235223 1.28677641 -0.00470446 1.94966123 -0.00712797 C4.13254957 -0.01385092 6.31537884 -0.01335875 8.49827671 -0.01294994 C10.06865883 -0.01624665 11.63904009 -0.01997181 13.20942026 -0.02409142 C17.54657214 -0.03414387 21.88371017 -0.0378335 26.22087204 -0.04048073 C30.89147638 -0.04437492 35.56206966 -0.05395472 40.23266697 -0.0626936 C51.53244509 -0.08249656 62.83222416 -0.09253496 74.13201532 -0.10142139 C79.45782377 -0.10580327 84.78363123 -0.11117083 90.1094389 -0.11641026 C107.82802562 -0.13343621 125.54661173 -0.14792444 143.26520538 -0.155159 C147.86808809 -0.15706885 152.4709708 -0.15898917 157.07385349 -0.16094494 C158.21785461 -0.16142868 159.36185572 -0.16191242 160.54052354 -0.16241082 C179.02042539 -0.17068853 197.50026204 -0.19598091 215.98013549 -0.22852562 C234.9712824 -0.26169621 253.96239633 -0.27961728 272.95357233 -0.28280324 C283.60843727 -0.28496051 294.2632075 -0.29359231 304.91804409 -0.31926441 C314.00564006 -0.34110941 323.09311836 -0.34895519 332.18073761 -0.33929763 C336.80774141 -0.33479076 341.4345032 -0.33642431 346.06147289 -0.35605907 C398.81134738 -0.56739495 444.80528011 10.66013087 485.9368906 45.13422108 C486.79411716 45.80066639 487.65134373 46.4671117 488.53454685 47.15375233 C490.7534583 48.98300128 492.53311379 50.81028618 494.3743906 53.00922108 C496.60997723 55.63701588 498.88844205 58.1170819 501.3743906 60.50922108 C503.9368906 63.13422108 503.9368906 63.13422108 503.9368906 65.13422108 C504.5968906 65.13422108 505.2568906 65.13422108 505.9368906 65.13422108 C507.21447849 66.54852772 507.21447849 66.54852772 508.65954685 68.54437733 C509.19362156 69.27914295 509.72769627 70.01390858 510.27795506 70.77093983 C510.84602879 71.57144764 511.41410252 72.37195545 511.9993906 73.19672108 C512.87567112 74.4264867 512.87567112 74.4264867 513.76965427 75.68109608 C524.84743004 91.39123018 533.55636849 107.62126865 539.1868906 126.07172108 C539.51983128 127.15876331 539.51983128 127.15876331 539.85949802 128.267766 C540.6133373 130.87686411 541.2798637 133.49895126 541.9368906 136.13422108 C542.1841338 137.07017109 542.1841338 137.07017109 542.4363718 138.02502918 C545.82796663 151.06632987 546.59227458 163.64914765 546.51330662 177.09369373 C546.49946192 180.36735865 546.53363878 183.63813966 546.57165623 186.91156483 C546.67334205 214.73001199 539.39669804 241.79259351 525.9368906 266.13422108 C525.3490781 267.21187733 524.7612656 268.28953358 524.1556406 269.39984608 C520.22952245 276.35978281 515.73650477 282.7553221 510.9368906 289.13422108 C510.12282539 290.25157198 509.31037899 291.37010373 508.4993906 292.48968983 C507.68717087 293.60057188 506.87467668 294.71125333 506.0618906 295.82172108 C505.32196873 296.83621326 504.58204685 297.85070545 503.8197031 298.89593983 C502.88771091 300.00388905 502.88771091 300.00388905 501.9368906 301.13422108 C501.2768906 301.13422108 500.6168906 301.13422108 499.9368906 301.13422108 C499.9368906 301.79422108 499.9368906 302.45422108 499.9368906 303.13422108 C499.2768906 303.13422108 498.6168906 303.13422108 497.9368906 303.13422108 C497.9368906 303.79422108 497.9368906 304.45422108 497.9368906 305.13422108 C496.49637731 306.37373251 495.04941316 307.60679583 493.56579685 308.79437733 C491.77588018 310.22254891 491.77588018 310.22254891 489.6868906 312.38422108 C468.1264863 333.94462538 439.97186542 348.71309604 410.4368906 355.94672108 C409.69253757 356.12960682 408.94818455 356.31249256 408.18127537 356.5009203 C391.28860642 360.31442664 374.5034525 361.5814761 357.2337656 361.46234608 C355.24835447 361.45927724 353.26294117 361.45740969 351.27752781 361.45666981 C347.17007974 361.45212346 343.062834 361.43790237 338.95544529 361.41547108 C333.6818002 361.38681668 328.40831053 361.37621619 323.13459492 361.37178898 C319.05986064 361.36764957 314.9851578 361.35785063 310.91043949 361.34591389 C308.96308994 361.34021304 307.01573739 361.33545372 305.06838322 361.33164692 C302.37182763 361.32481807 299.67539843 361.31121196 296.97888279 361.29535389 C295.77141392 361.2936771 295.77141392 361.2936771 294.53955173 361.29196644 C289.05160845 361.24893892 289.05160845 361.24893892 287.9368906 360.13422108 C287.84271287 358.04803085 287.81946183 355.95861631 287.82336521 353.87030506 C287.82318441 352.8739496 287.82318441 352.8739496 287.82299995 351.85746574 C287.82374884 349.69838186 287.83137593 347.53938335 287.83923435 345.38031483 C287.84024143 344.0642223 287.84124851 342.74812977 287.84228611 341.39215565 C287.84753812 336.45200199 287.86149921 331.5118607 287.8743906 326.57172108 C287.8950156 315.53734608 287.9156406 304.50297108 287.9368906 293.13422108 C265.8268906 293.13422108 243.7168906 293.13422108 220.9368906 293.13422108 C220.6068906 199.41422108 220.2768906 105.69422108 219.9368906 9.13422108 C208.20977878 21.92475672 208.20977878 21.92475672 197.41735935 35.44672108 C196.92880466 36.00359608 196.44024998 36.56047108 195.9368906 37.13422108 C195.2768906 37.13422108 194.6168906 37.13422108 193.9368906 37.13422108 C193.71130466 37.67949451 193.48571873 38.22476795 193.25329685 38.78656483 C191.54545978 41.83229207 189.26636398 44.18745018 186.8743906 46.69672108 C183.26640061 50.54992 179.80096125 54.44778119 176.4993906 58.57172108 C172.65579003 63.35043735 168.56728896 67.82579795 164.37854099 72.29803944 C160.47940264 76.48485471 156.86764242 80.84968336 153.2884531 85.31390858 C150.08942184 89.15062049 146.68029698 92.77179856 143.25964451 96.41034412 C139.63973983 100.2894822 136.34968152 104.31600083 133.2415781 108.62250233 C132.59575779 109.37080311 132.59575779 109.37080311 131.9368906 110.13422108 C131.2768906 110.13422108 130.6168906 110.13422108 129.9368906 110.13422108 C129.5347031 111.03140858 129.5347031 111.03140858 129.1243906 111.94672108 C127.94602752 114.1173899 126.70628079 115.4423932 124.9368906 117.13422108 C126.4528281 117.69109608 126.4528281 117.69109608 127.9993906 118.25922108 C129.64552866 118.88341805 131.29130536 119.50856815 132.9368906 120.13422108 C134.05192966 120.54801014 135.16696873 120.9617992 136.31579685 121.38812733 C165.06034436 132.26898274 188.02883179 151.64916731 201.3743906 179.60687733 C213.48595441 206.94873263 214.2469567 235.49613473 204.3040781 263.61859608 C200.99314333 272.13242835 196.68262304 279.76552735 191.6868906 287.38422108 C191.25030125 288.05324451 190.81371189 288.72226795 190.36389256 289.41156483 C189.27724797 291.02472792 188.11335867 292.58534585 186.9368906 294.13422108 C186.2768906 294.13422108 185.6168906 294.13422108 184.9368906 294.13422108 C184.6893906 294.70656483 184.4418906 295.27890858 184.1868906 295.86859608 C182.74372861 298.48432719 181.05472838 300.28195564 178.9368906 302.38422108 C177.8850156 303.44383045 177.8850156 303.44383045 176.8118906 304.52484608 C174.9368906 306.13422108 174.9368906 306.13422108 172.9368906 306.13422108 C172.9368906 306.79422108 172.9368906 307.45422108 172.9368906 308.13422108 C161.47640096 317.56171951 147.69071563 324.80481244 133.6868906 329.57172108 C132.66172337 329.92399769 132.66172337 329.92399769 131.61584568 330.283391 C110.53680376 336.99974021 85.02202666 336.5782732 63.9368906 330.13422108 C62.90483494 329.82073719 62.90483494 329.82073719 61.85192966 329.5009203 C47.1113833 324.84435868 33.53966093 317.35570923 21.9368906 307.13422108 C21.09642185 306.4252367 20.2559531 305.71625233 19.3900156 304.98578358 C-1.22438223 287.18244 -12.15839041 262.65377088 -16.0631094 236.13422108 C-16.0631094 228.87422108 -16.0631094 221.61422108 -16.0631094 214.13422108 C4.3968906 214.13422108 24.8568906 214.13422108 45.9368906 214.13422108 C46.5968906 221.39422108 47.2568906 228.65422108 47.9368906 236.13422108 C50.66147483 247.032558 55.52889829 255.567028 63.9368906 263.13422108 C64.45896091 263.62535389 64.98103123 264.1164867 65.51892185 264.62250233 C75.6665856 273.85389847 88.61680655 276.66245062 102.1243906 276.13422108 C114.90082901 274.75494648 126.77841422 269.24653555 135.2572031 259.45453358 C146.14256566 244.95410596 148.57589552 231.03228915 146.9368906 213.13422108 C144.94811143 202.22355755 137.87179983 191.76049374 129.3587656 184.79828358 C120.99642782 179.05254826 112.12850257 174.99548406 101.9368906 174.13422108 C101.22661716 174.0646117 100.51634373 173.99500233 99.78454685 173.92328358 C84.65093538 173.19055751 71.86215528 178.75419884 60.6868906 188.57172108 C59.4271182 189.74884883 58.1730897 190.93236084 56.9368906 192.13422108 C54.00577292 190.77287975 51.5883013 189.2070362 49.0618906 187.19672108 C48.27427341 186.57410389 47.48665623 185.9514867 46.67517185 185.31000233 C45.77153904 184.59199451 44.86790623 183.8739867 43.9368906 183.13422108 C42.2970358 181.84403742 40.65532978 180.55623235 39.01355076 179.26849842 C37.22768214 177.86718717 35.44348755 176.46376683 33.65954685 175.06000233 C31.10815354 173.05315912 28.55308042 171.05112147 25.99548435 169.05218983 C25.35764011 168.55300037 24.71979588 168.05381092 24.06262302 167.53949451 C22.83574614 166.57945497 21.60807574 165.62042844 20.37951756 164.66254139 C18.12642045 162.8978504 15.96272616 161.16005663 13.9368906 159.13422108 C14.10457444 154.94212501 17.16655859 152.23201469 19.8118906 149.25922108 C23.80266313 144.66784153 27.65467269 140.01027446 31.3743906 135.19672108 C35.62754909 129.71692481 40.05562593 124.42035025 44.59460545 119.17572498 C48.36720809 114.81461104 52.03387961 110.37786435 55.66735935 105.89984608 C58.17788946 102.84054261 60.74205253 99.83112487 63.3118906 96.82172108 C67.58914073 91.8050091 71.68165561 86.66891915 75.72131443 81.45990467 C79.67704006 76.39187459 83.82944454 71.5091706 88.05383396 66.66376209 C90.17976717 64.21985201 92.13698543 61.83407884 93.9368906 59.13422108 C92.06101009 59.11875988 92.06101009 59.11875988 90.14723301 59.10298634 C78.38929374 59.00543406 66.63140954 58.90271772 54.87355995 58.79488182 C48.82803877 58.73960366 42.7825128 58.68617598 36.73693943 58.63690662 C30.90790471 58.58933508 25.07893091 58.53699517 19.24996853 58.48128033 C17.020732 58.46082399 14.79147874 58.44211647 12.56221294 58.42514706 C9.45144796 58.40117537 6.34079931 58.3711113 3.23010349 58.33954334 C2.29862492 58.33378788 1.36714634 58.32803242 0.40744114 58.32210255 C-5.94905724 58.24827324 -5.94905724 58.24827324 -7.0631094 57.13422108 C-7.16198732 55.39039572 -7.19109972 53.64256564 -7.19250393 51.89593983 C-7.19723217 50.2191515 -7.19723217 50.2191515 -7.20205593 48.50848866 C-7.19901958 46.6835387 -7.19901958 46.6835387 -7.1959219 44.82172108 C-7.19687862 43.58252918 -7.19783535 42.34333729 -7.19882107 41.06659412 C-7.19950314 38.44033827 -7.19814477 35.81417474 -7.19348049 33.18793201 C-7.1877832 29.81493394 -7.19106242 26.44201543 -7.19705296 23.06902027 C-7.2015271 19.86158431 -7.19839822 16.65415807 -7.1959219 13.44672108 C-7.19794613 12.23008778 -7.19997036 11.01345448 -7.20205593 9.7599535 C-7.19890377 8.64209461 -7.19575161 7.52423573 -7.19250393 6.37250233 C-7.19170834 5.38290516 -7.19091274 4.39330799 -7.19009304 3.37372303 C-6.93280683 -1.16381388 -3.88262233 0.00601208 0 0 Z M13.9368906 22.13422108 C14.2668906 27.08422108 14.5968906 32.03422108 14.9368906 37.13422108 C55.8568906 37.13422108 96.7768906 37.13422108 138.9368906 37.13422108 C138.9368906 38.12422108 138.9368906 39.11422108 138.9368906 40.13422108 C138.2768906 40.13422108 137.6168906 40.13422108 136.9368906 40.13422108 C135.23516667 42.14091346 133.64142487 44.1591522 132.0618906 46.25922108 C128.1119416 51.40442807 124.06082084 56.42031551 119.8118906 61.32172108 C115.6030671 66.1863349 111.46998821 71.09802638 107.4134531 76.09125233 C104.27095891 79.95245576 101.10390074 83.79312018 97.9368906 87.63422108 C94.09610812 92.29483752 90.25809436 96.95752393 86.4368906 101.63422108 C69.85909645 121.90966448 69.85909645 121.90966448 62.2493906 130.82172108 C55.53370124 138.69721272 49.11117015 146.82737786 42.9368906 155.13422108 C44.16154047 156.24339528 45.39185105 157.3463207 46.6243906 158.44672108 C47.30888279 159.06160389 47.99337498 159.6764867 48.69860935 160.31000233 C52.09322359 163.08009073 52.09322359 163.08009073 55.9368906 165.13422108 C58.5954152 164.3254582 58.5954152 164.3254582 61.1243906 162.57172108 C64.69423513 160.44225618 68.15237347 158.46793002 71.9993906 156.88422108 C72.71224216 156.59031483 73.42509373 156.29640858 74.15954685 155.99359608 C92.89011622 150.1979206 112.679152 151.88817205 130.2493906 160.38422108 C147.58116094 169.56790998 159.80146129 184.1276723 165.9368906 202.73578358 C171.828579 222.75831837 169.58115146 242.71529446 159.8118906 261.03265858 C157.60238221 264.68755371 155.18214109 268.0150935 152.41735935 271.26703358 C150.9330018 273.13912568 149.92475348 274.96574159 148.9368906 277.13422108 C148.2768906 277.13422108 147.6168906 277.13422108 146.9368906 277.13422108 C145.9468906 278.15515858 145.9468906 278.15515858 144.9368906 279.19672108 C133.45953801 290.97435325 116.32562182 296.92726817 100.09045506 297.48846912 C79.39114744 297.70022038 60.9371948 290.19756642 45.76892185 276.12250233 C35.18549378 265.04777392 28.43526683 250.12447845 25.9368906 235.13422108 C19.3368906 235.13422108 12.7368906 235.13422108 5.9368906 235.13422108 C7.88228905 252.64280707 14.52413117 267.66046671 25.9368906 281.13422108 C26.45638279 281.79808826 26.97587498 282.46195545 27.51110935 283.14593983 C41.28607403 300.12283334 62.75097448 309.40629788 83.8743906 312.75922108 C110.33305488 315.30777893 136.14883959 309.67558982 157.4212656 293.24359608 C166.56105832 285.57979473 172.97276193 277.34319679 178.9368906 267.13422108 C179.67745701 265.88705311 179.67745701 265.88705311 180.43298435 264.61468983 C191.23622593 244.85922937 192.32792651 221.51963743 186.36193943 200.12982655 C182.64560922 187.64331253 176.6327745 176.85967229 167.9368906 167.13422108 C167.19825779 166.3014867 166.45962498 165.46875233 165.69860935 164.61078358 C145.21183217 142.81633977 117.72865969 136.62436809 88.9368906 135.13422108 C86.93705321 135.10871837 84.93648398 135.09389314 82.9368906 135.13422108 C84.97735787 131.50244601 87.22307445 128.55153659 90.0618906 125.50922108 C93.26959022 122.01179375 96.33953194 118.4586315 99.3118906 114.75922108 C103.47652429 109.61167559 107.88994201 104.7506972 112.38610935 99.89593983 C116.5878747 95.34670844 120.63131573 90.67055024 124.64392185 85.95453358 C129.54814899 80.19743218 134.47622021 74.48782603 139.6243906 68.94672108 C143.82147623 64.42838439 147.74331487 59.73900674 151.6087656 54.93500233 C155.04388679 50.80248238 158.69324092 46.88655327 162.3587656 42.95843983 C167.46435322 38.12338386 167.46435322 38.12338386 169.9368906 32.13422108 C170.5968906 32.13422108 171.2568906 32.13422108 171.9368906 32.13422108 C173.51880878 30.64995875 173.51880878 30.64995875 175.0618906 28.75922108 C175.60071873 28.1327367 176.13954685 27.50625233 176.6947031 26.86078358 C178.13156207 25.2181368 178.13156207 25.2181368 177.9368906 23.13422108 C178.5968906 22.80422108 179.2568906 22.47422108 179.9368906 22.13422108 C125.1568906 22.13422108 70.3768906 22.13422108 13.9368906 22.13422108 Z M271.9368906 26.13422108 C274.87011652 29.09216561 277.75826973 31.91405747 281.0462656 34.47406483 C281.80165623 35.06252186 282.55704685 35.65097889 283.3353281 36.25726795 C284.11134373 36.85603748 284.88735935 37.45480701 285.6868906 38.07172108 C286.44743748 38.66662342 287.20798435 39.26152576 287.9915781 39.87445545 C290.29021827 41.65687558 292.58418392 43.42326229 294.9368906 45.13422108 C295.51129887 45.63803303 296.08570713 46.14184498 296.67752171 46.66092396 C303.75802845 52.29798358 311.05335866 51.962019 319.6790781 51.86859608 C321.21254977 51.87478804 322.7460121 51.88389929 324.27945042 51.89575672 C328.30667232 51.9203927 332.33306148 51.91132535 336.36029148 51.89319324 C343.5290241 51.86695769 350.69790464 51.89993661 357.8665781 51.93109608 C359.01204263 51.93498781 359.01204263 51.93498781 360.18064785 51.93895817 C374.76240696 51.9988116 389.47961327 52.31393188 403.6243906 56.25922108 C404.7856345 56.57463856 404.7856345 56.57463856 405.97033787 56.89642811 C414.16387246 59.26663182 421.52564972 62.97278628 428.9368906 67.13422108 C430.07513279 67.75941639 431.21337498 68.3846117 432.38610935 69.02875233 C437.68697132 72.02148989 442.34985791 75.15074532 446.9368906 79.13422108 C447.5968906 79.13422108 448.2568906 79.13422108 448.9368906 79.13422108 C448.9368906 79.79422108 448.9368906 80.45422108 448.9368906 81.13422108 C450.48768131 82.7028619 450.48768131 82.7028619 452.4993906 84.32172108 C469.86640276 99.2207894 481.05109427 119.18009826 487.3118906 141.07172108 C487.56245213 141.94715565 487.81301365 142.82259022 488.07116795 143.72455311 C493.5835875 163.85236482 492.33801291 186.12595638 486.9368906 206.13422108 C486.5037656 207.78357655 486.5037656 207.78357655 486.0618906 209.46625233 C482.32179556 221.93880142 475.85034357 233.84494589 467.9368906 244.13422108 C467.31427341 244.95922108 466.69165623 245.78422108 466.05017185 246.63422108 C461.47440342 252.62013199 461.47440342 252.62013199 459.2337656 254.76312733 C457.70783383 256.06184176 457.70783383 256.06184176 457.9368906 258.13422108 C457.37099216 258.37785389 456.80509373 258.6214867 456.22204685 258.87250233 C453.51619109 260.36650474 451.60685565 262.18488056 449.3743906 264.32172108 C429.84606805 282.11608777 402.73122052 291.66797514 376.62048435 292.70843983 C375.13215343 292.770126 375.13215343 292.770126 373.61375523 292.83305836 C361.41093058 293.2915376 349.20869346 293.24301144 336.9993906 293.19672108 C334.64717803 293.191687 332.2949644 293.18712753 329.94274998 293.1830492 C324.27408093 293.17307968 318.60556545 293.15348045 312.9368906 293.13422108 C312.9368906 306.99422108 312.9368906 320.85422108 312.9368906 335.13422108 C323.97690746 335.22188917 323.97690746 335.22188917 335.01696873 335.28070545 C339.53864574 335.29844285 344.06013582 335.31911115 348.58166599 335.36053944 C393.60694002 335.76188573 434.10055322 327.72961304 468.9368906 297.13422108 C470.03323826 296.23509998 470.03323826 296.23509998 471.15173435 295.31781483 C472.78862897 293.972644 474.37075203 292.56114733 475.9368906 291.13422108 C475.9368906 290.47422108 475.9368906 289.81422108 475.9368906 289.13422108 C476.9268906 288.80422108 477.9168906 288.47422108 478.9368906 288.13422108 C482.17432665 284.66925438 485.01780732 280.86879429 487.9368906 277.13422108 C488.68712498 276.1983617 489.43735935 275.26250233 490.2103281 274.29828358 C502.82851947 258.13814376 511.16979961 239.71973022 516.9368906 220.13422108 C517.1529697 219.42314198 517.36904881 218.71206287 517.59167576 217.97943592 C521.13929381 205.77551711 521.32837669 193.49447117 521.3743906 180.88422108 C521.38065464 180.07746937 521.38691868 179.27071766 521.39337254 178.43951893 C521.57988217 140.40894802 506.80109265 103.24050918 480.4447031 75.78265858 C477.9368906 73.13422108 477.9368906 73.13422108 475.53454685 70.13812733 C472.68946048 66.84809512 469.69480282 64.32001861 466.2493906 61.69672108 C465.62999607 61.21936512 465.01060154 60.74200916 464.37243748 60.25018787 C462.5681871 58.86778619 460.75518818 57.4980744 458.9368906 56.13422108 C458.06419529 55.47937733 457.19149998 54.82453358 456.29235935 54.14984608 C430.40050253 35.4287025 398.9352069 25.90076588 367.07116795 26.02069569 C366.0358292 26.02054966 365.00049046 26.02040363 363.93377781 26.02025318 C360.54677249 26.02094411 357.1598237 26.02869774 353.7728281 26.03656483 C351.41057458 26.03843192 349.04832067 26.03985445 346.68606663 26.04085255 C340.49492399 26.04465475 334.30380515 26.05446524 328.11267185 26.06555653 C321.78455012 26.07582021 315.45642452 26.08036076 309.12829685 26.08539295 C296.73115104 26.09608973 284.3340228 26.11313833 271.9368906 26.13422108 Z M245.9368906 39.13422108 C245.9368906 114.70422108 245.9368906 190.27422108 245.9368906 268.13422108 C259.7968906 268.13422108 273.6568906 268.13422108 287.9368906 268.13422108 C288.11746926 242.5694922 288.26484073 217.00527954 288.35138798 191.44007492 C288.39264123 179.56974362 288.44888502 167.69983666 288.54040623 155.82977772 C288.62013713 145.48395985 288.67175481 135.13844927 288.68959856 124.79233271 C288.70002952 119.31381094 288.72454684 113.8361683 288.78273106 108.35792828 C288.83706225 103.20064475 288.85377734 98.04460175 288.84175205 92.88705921 C288.84395166 90.99517606 288.85984929 89.10325113 288.8905344 87.21161556 C289.38268632 77.43782361 289.38268632 77.43782361 286.22433567 68.51947689 C284.20535023 66.71732268 282.29914494 65.43713501 279.9368906 64.13422108 C278.69639959 63.20023857 277.46642619 62.25191525 276.25329685 61.28265858 C275.00431768 60.35504354 273.7529443 59.43064485 272.4993906 58.50922108 C271.11333778 57.4814326 269.72794564 56.45275266 268.3431406 55.42328358 C267.62899998 54.89251209 266.91485935 54.36174061 266.1790781 53.81488514 C261.50112713 50.30845934 256.87901154 46.72769525 252.25744724 43.14740467 C251.57545261 42.62227283 250.89345798 42.097141 250.19079685 41.55609608 C249.58566257 41.08784412 248.9805283 40.61959217 248.35705662 40.13715076 C247.09051717 39.03807781 247.09051717 39.03807781 245.9368906 39.13422108 Z M312.9368906 77.13422108 C312.9368906 140.16422108 312.9368906 203.19422108 312.9368906 268.13422108 C373.94472449 271.06447176 373.94472449 271.06447176 427.1868906 250.38422108 C427.76044285 249.99532703 428.33399509 249.60643299 428.92492771 249.20575428 C430.30253612 248.23679618 431.62585152 247.19151066 432.9368906 246.13422108 C432.9368906 245.47422108 432.9368906 244.81422108 432.9368906 244.13422108 C433.52985935 243.86480701 434.1228281 243.59539295 434.7337656 243.31781483 C448.13976851 236.11565369 457.67123439 216.78570028 462.16980076 202.73285389 C469.24076608 178.93354398 468.8392046 152.72603915 457.01110935 130.37250233 C455.08702615 126.89535363 453.02656063 123.51407199 450.9368906 120.13422108 C450.42384373 119.25894764 449.91079685 118.3836742 449.3822031 117.48187733 C448.29924996 115.6587994 447.12925314 113.8876954 445.9368906 112.13422108 C445.2768906 112.13422108 444.6168906 112.13422108 443.9368906 112.13422108 C443.73450779 111.59668201 443.53212498 111.05914295 443.32360935 110.50531483 C441.3617829 107.15086791 438.60468687 104.77517915 435.7493906 102.19672108 C435.19702732 101.68431873 434.64466404 101.17191639 434.07556248 100.6439867 C427.60745999 94.73179546 420.92072812 90.31931074 412.9993906 86.57172108 C412.17471287 86.18113514 411.35003513 85.7905492 410.50036716 85.38812733 C379.98100981 71.42303176 345.78851376 77.13422108 312.9368906 77.13422108 Z " transform="translate(16.063109397888184,-0.13422107696533203)" style=""/><path d="M0 0 C0.99581589 -0.01283524 1.99163177 -0.02567047 3.0176239 -0.03889465 C4.10598038 -0.04628159 5.19433685 -0.05366852 6.31567383 -0.0612793 C7.43524979 -0.06935104 8.55482574 -0.07742279 9.70832825 -0.08573914 C12.09166911 -0.09961123 14.47503011 -0.1103193 16.85839844 -0.11816406 C20.4623971 -0.13521276 24.06543872 -0.17905082 27.66918945 -0.22338867 C49.03182912 -0.36831624 65.81354492 2.78123188 81.60083008 18.2434082 C85.63078568 22.41333131 88.61183525 27.07450848 91.33520508 32.17700195 C91.73223633 32.90274414 92.12926758 33.62848633 92.53833008 34.3762207 C99.39455537 48.21658593 99.7654052 63.47527051 95.58520508 78.11450195 C92.29698973 87.65032647 87.29086561 95.82212029 80.33520508 103.17700195 C79.67520508 103.17700195 79.01520508 103.17700195 78.33520508 103.17700195 C78.33520508 103.83700195 78.33520508 104.49700195 78.33520508 105.17700195 C60.32158894 118.79897737 41.78651561 120.53945898 19.85131836 120.43774414 C17.0475584 120.42685575 14.24441651 120.43779026 11.44067383 120.45043945 C9.65030784 120.44912051 7.85994223 120.44656364 6.06958008 120.44262695 C5.2352948 120.44667542 4.40100952 120.45072388 3.54144287 120.45489502 C-0.37137514 120.42295073 -2.33594175 120.3962374 -5.66479492 118.17700195 C-6.03673172 116.10646725 -6.03673172 116.10646725 -6.0322876 113.50144958 C-6.03785675 112.51568939 -6.0434259 111.5299292 -6.04916382 110.51429749 C-6.03994904 109.42902267 -6.03073425 108.34374786 -6.02124023 107.22558594 C-6.02328461 106.08573242 -6.02532898 104.94587891 -6.0274353 103.77148438 C-6.03045337 99.98852713 -6.01193616 96.20600142 -5.99291992 92.4230957 C-5.98986423 89.80518197 -5.98798667 87.18726661 -5.98724365 84.5693512 C-5.98354908 79.07726427 -5.96857129 73.58530218 -5.94604492 68.09326172 C-5.9171565 61.03556724 -5.9068208 53.97797327 -5.90236282 46.9202261 C-5.89881497 41.51323798 -5.88840488 36.10627252 -5.87648773 30.69929695 C-5.87077047 28.09604139 -5.86601662 25.49278353 -5.86222076 22.88952446 C-5.85538392 19.25931647 -5.84176419 15.62920188 -5.82592773 11.99902344 C-5.82480988 10.9117244 -5.82369202 9.82442535 -5.82254028 8.70417786 C-5.81683014 7.72123749 -5.81112 6.73829712 -5.80523682 5.72557068 C-5.80226215 4.86629188 -5.79928749 4.00701307 -5.79622269 3.12169552 C-5.53887723 -0.68616089 -3.29537985 0.03689231 0 0 Z M20.33520508 26.17700195 C20.31207896 34.89544198 20.29428862 43.61387152 20.28339291 52.33233547 C20.27816466 56.38025937 20.27106809 60.42816236 20.25976562 64.47607422 C20.24893465 68.37936167 20.2429278 72.28262894 20.24032784 76.18593025 C20.23847397 77.67833842 20.23485408 79.17074544 20.22947502 80.66314507 C20.22226177 82.74648335 20.22121425 84.82973727 20.22167969 86.91308594 C20.21945908 88.10111313 20.21723846 89.28914032 20.21495056 90.51316833 C20.03157913 93.09820888 20.03157913 93.09820888 21.33520508 94.17700195 C35.77188266 94.84164557 49.44912114 94.99019732 61.27270508 85.64575195 C67.33382425 80.10714305 71.80533518 72.47829702 72.33520508 64.17700195 C72.38547852 63.51313477 72.43575195 62.84926758 72.48754883 62.1652832 C72.9172496 52.31654145 69.71344027 43.66691213 63.33520508 36.17700195 C55.08855899 28.17884238 47.01141203 25.81344203 35.6574707 25.91333008 C33.98201172 25.95103516 33.98201172 25.95103516 32.27270508 25.98950195 C31.12092773 26.00303711 29.96915039 26.01657227 28.7824707 26.03051758 C25.96621536 26.0655747 23.15096743 26.11471339 20.33520508 26.17700195 Z " transform="translate(359.664794921875,112.822998046875)" style=""/><path d="M0 0 C1.44004543 -0.02033005 2.88017391 -0.03483323 4.3203125 -0.046875 C5.12227051 -0.05557617 5.92422852 -0.06427734 6.75048828 -0.07324219 C9.59776208 0.01946262 11.542325 0.55430882 14 2 C18.42330933 6.73925999 18.14912723 11.77988284 18.15771484 17.97802734 C18.16533592 19.1787664 18.16533592 19.1787664 18.17311096 20.40376282 C18.18379731 22.13942757 18.19242427 23.87510595 18.19923019 25.61079025 C18.21104102 28.36003514 18.23049913 31.10912449 18.25234985 33.85830688 C18.31389529 41.67403987 18.36800788 49.48975586 18.40136719 57.30566406 C18.42233154 62.08905374 18.45764694 66.87215778 18.50212479 71.65538406 C18.51626858 73.47576152 18.52500356 75.29618948 18.52817917 77.11661911 C18.53309716 79.66577736 18.55627696 82.21417945 18.58349609 84.76318359 C18.58048996 85.51143906 18.57748383 86.25969452 18.5743866 87.03062439 C18.64890687 91.73872945 19.39471878 95.05543701 22 99 C25.40959624 101.70843862 29.53310617 101.30640252 33.70605469 101.31884766 C34.47717087 101.32889328 35.24828705 101.3389389 36.04277039 101.34928894 C38.58579784 101.38012357 41.12871999 101.39715674 43.671875 101.4140625 C45.4373668 101.43277393 47.20284966 101.45234733 48.96832275 101.4727478 C53.61084724 101.52407764 58.25340073 101.56369881 62.89605713 101.60089111 C67.63520486 101.6409254 72.37423187 101.69202038 77.11328125 101.7421875 C86.40876938 101.83895687 95.70432565 101.92335846 105 102 C104.39205522 98.79374868 103.77135809 95.59009135 103.1484375 92.38671875 C102.97755615 91.48465698 102.8066748 90.58259521 102.63061523 89.65319824 C101.30894257 82.9046575 99.44887129 76.99014487 96 71 C95.55914063 70.19304687 95.11828125 69.38609375 94.6640625 68.5546875 C90.46813293 61.53056231 85.06649871 57.59755307 77.5 54.625 C67.12343147 52.77204133 56.97775026 54.32984194 48 60 C45.55994404 61.89266698 43.2523703 63.88840285 41 66 C40.19374333 51.30821187 40.19374333 51.30821187 45 45 C52.48892165 37.15446303 62.62397382 35.1136719 73.125 34.75 C86.22590484 34.94741089 97.42402497 38.98582796 106.6875 48.4375 C118.79664678 63.65378995 122.77557124 83.03872931 124 102 C128.22994309 101.91899061 132.45845865 101.80615495 136.6875 101.6875 C137.88568359 101.66494141 139.08386719 101.64238281 140.31835938 101.61914062 C141.47529297 101.58369141 142.63222656 101.54824219 143.82421875 101.51171875 C144.88729248 101.48553467 145.95036621 101.45935059 147.0456543 101.43237305 C151.43668694 100.78973865 153.91969257 99.27198682 156.78051758 95.90356445 C158.51544929 91.77272505 158.47914315 87.9833907 158.51171875 83.54296875 C158.52966995 82.64000565 158.54762115 81.73704254 158.56611633 80.80671692 C158.62013021 77.93369156 158.65408637 75.06083149 158.6875 72.1875 C158.72068096 70.23500309 158.75517134 68.28252796 158.79101562 66.33007812 C158.8758516 61.55350484 158.94270536 56.77697982 159 52 C160.91635217 51.94576362 162.83314925 51.90710037 164.75 51.875 C165.81734375 51.85179687 166.8846875 51.82859375 167.984375 51.8046875 C170.99733767 51.99982757 172.56367726 52.25506615 175 54 C177.56186171 57.45391588 177.30624924 61.31041426 177.30078125 65.44140625 C177.30506638 66.16432358 177.3093515 66.88724091 177.31376648 67.63206482 C177.31950143 69.16265825 177.32001618 70.69327894 177.31567383 72.22387695 C177.31254329 74.5306048 177.33587806 76.83601149 177.36132812 79.14257812 C177.41186135 90.9520262 176.5779124 102.67425069 168.31640625 111.875 C160.05525717 119.85357456 150.4100944 120.44664316 139.34936523 120.37231445 C138.12365814 120.37596512 136.89795105 120.37961578 135.63510132 120.38337708 C132.30234309 120.39005263 128.97015188 120.38343063 125.63744998 120.37004495 C122.1329797 120.35864292 118.62852222 120.3628446 115.1240387 120.36479187 C109.24255569 120.36567198 103.36118856 120.35465294 97.47973633 120.33618164 C90.69956665 120.3150085 83.91956643 120.31150796 77.13937038 120.3177436 C70.59009933 120.3234563 64.04088736 120.31776983 57.49162483 120.30657005 C54.71633869 120.30195025 51.94108901 120.30103876 49.16580009 120.3031559 C45.28421697 120.30540521 41.40279211 120.2908666 37.52124023 120.2746582 C36.38176437 120.27713562 35.24228851 120.27961304 34.06828308 120.28216553 C23.95931492 120.21501232 15.79274682 119.49376634 8.18359375 112.27734375 C1.12114321 104.86103347 -0.46427955 97.10555612 -0.34057617 87.07397461 C-0.34101425 86.12656403 -0.34145233 85.17915344 -0.34190369 84.20303345 C-0.3398303 81.10258656 -0.31656806 78.00269501 -0.29296875 74.90234375 C-0.28736764 72.74044592 -0.28309997 70.57854425 -0.28010559 68.41664124 C-0.26869745 62.74982027 -0.23926505 57.08323306 -0.20599365 51.41650391 C-0.17520568 45.62470664 -0.16158164 39.83287129 -0.14648438 34.04101562 C-0.11439141 22.69390819 -0.06324403 11.3469736 0 0 Z " transform="translate(1114,54)" style=""/><path d="M0 0 C1.93324637 -0.05747337 3.86698273 -0.09863681 5.80078125 -0.1328125 C6.87755127 -0.15746582 7.95432129 -0.18211914 9.0637207 -0.20751953 C12 0 12 0 15.1875 2.125 C18.31698368 7.08900859 18.12731387 12.30511654 18.14526367 18.05249023 C18.14862228 18.73152908 18.1519809 19.41056793 18.15544128 20.11018372 C18.16489478 22.34300601 18.16689228 24.57575271 18.16796875 26.80859375 C18.17118772 28.37834197 18.17455226 29.94808991 18.17805481 31.51783752 C18.18403393 34.80869235 18.18589621 38.09952098 18.18530273 41.39038086 C18.18520176 45.5656581 18.19879223 49.74076281 18.21607494 53.91599941 C18.22731332 57.16179645 18.22921827 60.40755352 18.22869301 63.653368 C18.22985777 65.19002941 18.23419277 66.72669238 18.24202538 68.26333427 C18.39277845 100.92283189 18.39277845 100.92283189 8.1796875 111.96875 C0.55627295 118.26501141 -8.85342433 119.52607641 -18.4375 119.375 C-19.35402344 119.36702393 -20.27054688 119.35904785 -21.21484375 119.35083008 C-29.05286798 119.18591426 -36.16015195 118.36926795 -42.9375 114.1875 C-43.618125 113.795625 -44.29875 113.40375 -45 113 C-46.99863756 113.57944932 -46.99863756 113.57944932 -49 115 C-55.71693626 118.05315284 -60.85500738 119.12327495 -68.21777344 119.14526367 C-68.92581116 119.14862228 -69.63384888 119.1519809 -70.36334229 119.15544128 C-72.69537124 119.1649103 -75.02732804 119.16689255 -77.359375 119.16796875 C-78.98976673 119.17118482 -80.62015818 119.17454916 -82.25054932 119.17805481 C-85.66671415 119.18403645 -89.08285373 119.18589577 -92.49902344 119.18530273 C-96.85764065 119.18520132 -101.21609419 119.198836 -105.5746727 119.21607494 C-108.94289887 119.22724376 -112.31108613 119.22922042 -115.67932892 119.22869301 C-117.28514417 119.22986645 -118.89096064 119.23425218 -120.49675751 119.24202538 C-133.9763723 119.30115346 -145.50141835 118.68997874 -156.01171875 109.1796875 C-166.05971921 98.41241586 -168.85423629 85.37230229 -169 71 C-168.44291865 62.31365741 -166.4600477 53.35364497 -160.03515625 47.08203125 C-154.55750494 42.78763423 -150.70151771 41.86194002 -143.75 41.9375 C-142.67234375 41.94652344 -141.5946875 41.95554688 -140.484375 41.96484375 C-139.66453125 41.97644531 -138.8446875 41.98804688 -138 42 C-138.37511719 42.4125 -138.75023437 42.825 -139.13671875 43.25 C-148.70156027 54.04357431 -151.9577313 63.52509626 -151.1953125 77.93798828 C-150.50271141 85.25012431 -147.4470999 91.20650736 -142.66015625 96.66015625 C-138.39165189 100.10509035 -134.04434648 100.25221199 -128.71875 100.25878906 C-128.00428711 100.2622937 -127.28982422 100.26579834 -126.55371094 100.26940918 C-124.20237383 100.27818 -121.85133993 100.27239391 -119.5 100.265625 C-117.86002546 100.26697299 -116.2200513 100.26891464 -114.58007812 100.27142334 C-111.14709662 100.2743683 -107.71421936 100.27009718 -104.28125 100.26074219 C-99.8863495 100.249348 -95.4916933 100.25591084 -91.09680176 100.26788712 C-87.7115699 100.27512268 -84.32639573 100.27280999 -80.94116211 100.26763153 C-79.32088187 100.26629973 -77.70059634 100.26792628 -76.08032227 100.27259064 C-73.81382422 100.27768381 -71.54771889 100.26990672 -69.28125 100.25878906 C-67.99283203 100.25719788 -66.70441406 100.25560669 -65.37695312 100.25396729 C-62.10102389 100.00759761 -59.88312414 99.54892939 -57 98 C-54.49441739 93.07726711 -54.65806864 87.85212971 -54.5859375 82.4453125 C-54.56657135 81.54376434 -54.5472052 80.64221619 -54.5272522 79.71334839 C-54.46775704 76.85066004 -54.42119183 73.98793082 -54.375 71.125 C-54.33679253 69.17706637 -54.2977392 67.22914914 -54.2578125 65.28125 C-54.16208035 60.52096742 -54.07793884 55.7606058 -54 51 C-52.06667675 50.94928619 -50.13297194 50.91296682 -48.19921875 50.8828125 C-47.12244873 50.86105957 -46.04567871 50.83930664 -44.9362793 50.81689453 C-42 51 -42 51 -38.8125 52.875 C-35.69835491 56.52606666 -35.85685999 58.90842298 -35.7890625 63.66015625 C-35.76095965 65.02540191 -35.73229503 66.3906361 -35.703125 67.75585938 C-35.66214375 69.89932508 -35.62524725 72.04258461 -35.59863281 74.1862793 C-35.72994742 87.367653 -35.72994742 87.367653 -30.40234375 99.0390625 C-26.51490117 100.59403953 -22.70706642 100.43155966 -18.5625 100.375 C-17.2930957 100.39240234 -17.2930957 100.39240234 -15.99804688 100.41015625 C-9.43330576 100.38713441 -9.43330576 100.38713441 -4 97 C-1.34961965 91.12247206 -0.55619692 86.32112986 -0.56762695 79.921875 C-0.5574353 79.05263901 -0.54724365 78.18340302 -0.53674316 77.28782654 C-0.50677756 74.44181739 -0.4973725 71.59614573 -0.48828125 68.75 C-0.47142237 66.76602067 -0.4532705 64.78205194 -0.43388367 62.7980957 C-0.38650896 57.59665236 -0.35661861 52.39525202 -0.33044434 47.19366455 C-0.30057549 41.87772126 -0.25406692 36.56192594 -0.20898438 31.24609375 C-0.12309384 20.83080677 -0.05568528 10.41548922 0 0 Z " transform="translate(769,55)" style=""/><path d="M0 0 C1.44003523 -0.02202407 2.88016794 -0.03773594 4.3203125 -0.05078125 C5.12227051 -0.06020752 5.92422852 -0.06963379 6.75048828 -0.0793457 C10.42134987 0.05013444 12.89540056 1.13210044 15.75 3.375 C18.78421587 7.31948064 18.15122115 12.33080235 18.15771484 17.08569336 C18.16533592 18.30347221 18.16533592 18.30347221 18.17311096 19.54585266 C18.18379754 21.30607468 18.19242441 23.06631014 18.19923019 24.82655144 C18.21103699 27.61332636 18.23049343 30.39994756 18.25234985 33.18666077 C18.31391355 41.10900767 18.36803802 49.03133736 18.40136719 56.95385742 C18.42231121 61.80207957 18.45760888 66.6500188 18.50212479 71.4980793 C18.51628327 73.34440342 18.52500688 75.19077756 18.52817917 77.03715324 C18.53308764 79.62004093 18.55624244 82.20217713 18.58349609 84.78491211 C18.58048996 85.54611359 18.57748383 86.30731506 18.5743866 87.09158325 C18.64456301 91.56978111 19.25290932 94.43075489 22 98 C27.61176132 102.44467058 34.18995041 101.71054445 41 101 C43.97102961 100.05588466 44.77922158 99.344155 47 97 C49.18102124 91.95489568 49.33819533 87.28234556 49.4140625 81.8828125 C49.43342865 81.02565643 49.4527948 80.16850037 49.4727478 79.28536987 C49.53221256 76.56534572 49.57879569 73.84527848 49.625 71.125 C49.6632103 69.27341972 49.70226378 67.42185663 49.7421875 65.5703125 C49.83788664 61.04701575 49.92203906 56.52363584 50 52 C51.76942454 51.96955425 53.5389997 51.94777241 55.30859375 51.9296875 C56.29400146 51.91663574 57.27940918 51.90358398 58.29467773 51.89013672 C61.7277215 52.02955281 63.51735285 52.59743824 66 55 C67.92824363 59.62086303 68.26206141 63.64872912 68.30859375 68.62890625 C68.33373857 70.09049904 68.3591368 71.55208749 68.38476562 73.01367188 C68.41353741 75.29352834 68.43758871 77.57330994 68.45629883 79.85327148 C68.4780015 82.07052178 68.51742001 84.28694437 68.55859375 86.50390625 C68.57877563 88.48112671 68.57877563 88.48112671 68.59936523 90.49829102 C69.02505062 94.21895253 69.67667595 96.09115219 72 99 C74.80598262 100.90170528 77.05492608 101.25553933 80.40625 101.265625 C81.23253906 101.26820313 82.05882812 101.27078125 82.91015625 101.2734375 C84.19212891 101.26183594 84.19212891 101.26183594 85.5 101.25 C86.35464844 101.25773437 87.20929688 101.26546875 88.08984375 101.2734375 C89.32927734 101.26957031 89.32927734 101.26957031 90.59375 101.265625 C91.34333984 101.26336914 92.09292969 101.26111328 92.86523438 101.25878906 C95.45090739 100.94533831 96.86391171 100.51751727 99 99 C102.22832803 93.90254226 102.44235679 89.70824342 102.43237305 83.87353516 C102.4425647 82.97533051 102.45275635 82.07712585 102.46325684 81.15170288 C102.49333204 78.19742551 102.50264447 75.2434727 102.51171875 72.2890625 C102.52856948 70.23496426 102.54672025 68.18087632 102.56611633 66.12680054 C102.61357953 60.7313356 102.64341281 55.33591237 102.66955566 49.94030762 C102.69937965 44.43017337 102.74590371 38.92018279 102.79101562 33.41015625 C102.87700695 22.60684604 102.9443709 11.80350623 103 1 C105.08218362 0.89167831 107.16599129 0.81426459 109.25 0.75 C110.99023438 0.68039063 110.99023438 0.68039063 112.765625 0.609375 C116 1 116 1 118.359375 2.890625 C121.40655141 6.80842324 121.16040883 10.12322554 121.17700195 14.9152832 C121.18357315 15.73350052 121.19014435 16.55171783 121.19691467 17.39472961 C121.21668346 20.11341442 121.22832467 22.83204361 121.23828125 25.55078125 C121.24235678 26.48152151 121.2464323 27.41226177 121.25063133 28.37120628 C121.2715177 33.30744582 121.28580238 38.24365744 121.29516602 43.17993164 C121.30617282 48.25245297 121.34049836 53.32452862 121.38033772 58.3968935 C121.40664643 62.31687669 121.41487093 66.23675662 121.41844749 70.1568203 C121.42328498 72.02450726 121.4348168 73.8921905 121.45348549 75.75979042 C121.69403143 101.44206524 121.69403143 101.44206524 113.47265625 111.57421875 C105.53633935 119.25792079 96.14307555 120.34154067 85.5625 120.25 C84.22735352 120.26160156 84.22735352 120.26160156 82.86523438 120.2734375 C75.65263281 120.25236343 68.79890002 119.93770001 62.75 115.75 C61.38875 114.88375 61.38875 114.88375 60 114 C57.44896633 114.46863044 57.44896633 114.46863044 55 116 C43.38432314 121.18557003 28.65414921 122.19901989 16.3984375 118.1640625 C9.20472827 114.67265314 4.53041614 109.47644155 1.65625 102.078125 C0.559278 98.60438033 -0.12503953 95.53019901 -0.12025452 91.87445068 C-0.12231651 90.65456451 -0.12231651 90.65456451 -0.12442017 89.41003418 C-0.11902725 88.08509949 -0.11902725 88.08509949 -0.11352539 86.73339844 C-0.11367142 85.79647156 -0.11381744 84.85954468 -0.1139679 83.89422607 C-0.11327157 80.79925212 -0.10549223 77.70433844 -0.09765625 74.609375 C-0.09579108 72.46274854 -0.09436764 70.31612166 -0.09336853 68.16949463 C-0.08955118 62.52078068 -0.07972754 56.87209246 -0.06866455 51.22338867 C-0.05843364 45.45882516 -0.0538673 39.69425748 -0.04882812 33.9296875 C-0.0381046 22.61978037 -0.02103753 11.30989232 0 0 Z " transform="translate(800,54)" style=""/><path d="M0 0 C11.44444444 0 11.44444444 0 15 3 C17.02736162 6.04104243 17.24941232 6.59978723 17.24050903 10.0052948 C17.24325836 10.81717758 17.24600769 11.62906036 17.24884033 12.46554565 C17.24164978 13.35243073 17.23445923 14.2393158 17.22705078 15.15307617 C17.22734283 16.08985703 17.22763489 17.02663788 17.22793579 17.99180603 C17.22654098 21.09228739 17.21097255 24.1925293 17.1953125 27.29296875 C17.19158291 29.44102344 17.18873568 31.58907984 17.18673706 33.73713684 C17.17909635 39.39412116 17.15944405 45.05100299 17.1373291 50.70794678 C17.11688013 56.47911187 17.10773737 62.25029351 17.09765625 68.02148438 C17.07619862 79.34770131 17.04205735 90.67384214 17 102 C21.16336671 101.95565192 25.32529865 101.88562048 29.48779297 101.79248047 C30.90173448 101.76437608 32.31583002 101.74310933 33.72998047 101.72900391 C35.77130384 101.70742544 37.81079599 101.66070914 39.8515625 101.609375 C41.68968506 101.5779541 41.68968506 101.5779541 43.56494141 101.54589844 C47.6832757 100.89141404 49.83177296 99.69053811 53 97 C55.66566279 92.69839721 55.30624785 87.89992693 55.31884766 82.98706055 C55.32889328 82.08900192 55.3389389 81.1909433 55.34928894 80.26567078 C55.38010672 77.30602643 55.39715226 74.3464725 55.4140625 71.38671875 C55.43277527 69.33119428 55.45234876 67.27567749 55.4727478 65.22016907 C55.52406345 59.81648279 55.56369231 54.41277161 55.60089111 49.00897217 C55.64093423 43.49224693 55.6920252 37.97562524 55.7421875 32.45898438 C55.83894012 21.63939566 55.92334713 10.81974847 56 0 C57.59360174 -0.03392246 59.18741339 -0.05807314 60.78125 -0.078125 C61.66876953 -0.09262695 62.55628906 -0.10712891 63.47070312 -0.12207031 C66.94151107 0.04543972 69.16870386 1.0180927 72 3 C74.61776196 6.68673432 74.28874808 10.7419932 74.2746582 15.08227539 C74.27976913 15.89424377 74.28488007 16.70621216 74.29014587 17.54278564 C74.30404623 20.22781755 74.30308367 22.91259262 74.30078125 25.59765625 C74.30467017 27.47130935 74.30900525 29.34496158 74.31376648 31.21861267 C74.32123128 35.1502467 74.32093716 39.08179097 74.31567383 43.01342773 C74.3099028 48.02774039 74.3267514 53.04168082 74.3500185 58.05593204 C74.36483009 61.92952083 74.36561708 65.80302175 74.36250877 69.67663383 C74.36301905 71.52362233 74.36820118 73.37061613 74.37832069 75.21757698 C74.50524308 101.64149263 74.50524308 101.64149263 65.31640625 111.875 C56.66446195 120.23100254 46.47014277 120.45404453 34.92578125 120.3984375 C33.58920636 120.40046402 32.25263255 120.40338024 30.9160614 120.40713501 C28.13330416 120.41152669 25.35083828 120.40522746 22.56811523 120.39111328 C19.01752101 120.37397248 15.46760488 120.3839128 11.9170351 120.40183067 C9.16392476 120.41271193 6.41097322 120.40920329 3.65785789 120.4014473 C1.71756417 120.39850095 -0.22273597 120.40753847 -2.16300964 120.4168396 C-8.50557707 120.3663723 -13.45530072 120.22256873 -19 117 C-22.29648771 112.784819 -21.12042365 107.05779326 -21 102 C-14.07 102 -7.14 102 0 102 C0 68.34 0 34.68 0 0 Z " transform="translate(1327,54)" style=""/><path d="M0 0 C8.44234472 7.1882283 14.40668537 18.18095852 15.39453125 29.25927734 C16.1438318 43.1454222 15.27579669 54.82499177 6.1875 65.9375 C-0.70862772 73.58978208 -9.58166775 77.17966057 -19.8125 77.9375 C-20.80443359 78.01484375 -20.80443359 78.01484375 -21.81640625 78.09375 C-33.43379492 78.59252876 -43.18963338 74.91814925 -51.74609375 67.19140625 C-60.74498288 57.88287792 -63.1560047 45.98651397 -63.02734375 33.44921875 C-62.29210986 21.43148663 -58.41414436 10.53914436 -49.8125 1.9375 C-34.49449823 -8.62052767 -15.93425599 -11.23500083 0 0 Z M-40.3359375 17.72265625 C-45.65527408 25.70166112 -45.6803306 34.59086474 -44.8125 43.9375 C-43.18576234 51.64148399 -39.31552797 56.57099046 -32.8125 60.9375 C-26.49989124 63.04170292 -18.47599193 63.11266763 -12.3125 60.4375 C-6.79446512 57.11969422 -4.09990701 51.76714664 -2.5 45.6875 C-0.76858193 36.03151459 -0.66008789 26.05345583 -6.32421875 17.7109375 C-9.92668728 13.2584483 -13.17841761 10.51899681 -18.8125 8.9375 C-28.03972088 8.05871706 -34.50736406 10.3637496 -40.3359375 17.72265625 Z " transform="translate(1086.8125,96.0625)" style=""/><path d="M0 0 C1.75753106 -0.04914459 3.51546021 -0.08418706 5.2734375 -0.11328125 C6.25231934 -0.13430908 7.23120117 -0.15533691 8.23974609 -0.17700195 C12.32114075 0.08471847 14.02057728 1.25579486 17 4 C17.95939487 6.8781846 18.12357029 8.66316695 18.12025452 11.65068054 C18.12162918 12.60560394 18.12300385 13.56052734 18.12442017 14.54438782 C18.12082489 15.59023544 18.11722961 16.63608307 18.11352539 17.71362305 C18.11367142 18.8162146 18.11381744 19.91880615 18.1139679 21.05480957 C18.11327002 24.70713249 18.10548344 28.35940471 18.09765625 32.01171875 C18.09579163 34.5409187 18.09436793 37.07011902 18.09336853 39.59931946 C18.08993768 45.58098662 18.08205244 51.56263195 18.07201904 57.54429036 C18.06084387 64.35438502 18.05534391 71.16448054 18.05032361 77.97458208 C18.03986946 91.98306483 18.02227875 105.99153142 18 120 C16.39466266 120.03215564 14.78913972 120.05513756 13.18359375 120.07421875 C12.28954834 120.08799561 11.39550293 120.10177246 10.47436523 120.1159668 C7.18929976 119.96200468 5.46460624 119.16586609 3 117 C-0.99148011 112.19512279 -0.4027148 107.08109751 -0.34057617 101.15112305 C-0.34101425 100.05799301 -0.34145233 98.96486298 -0.34190369 97.83860779 C-0.33981554 94.2294624 -0.31648247 90.62078289 -0.29296875 87.01171875 C-0.28737291 84.50779982 -0.28310276 82.00387761 -0.28010559 79.49995422 C-0.26982592 73.58557892 -0.24618742 67.67135283 -0.21605712 61.75705415 C-0.1791975 54.36085227 -0.16311424 46.96462962 -0.14648438 39.56835938 C-0.11431814 26.37882152 -0.06369747 13.18942133 0 0 Z " transform="translate(940,54)" style=""/><path d="M0 0 C1.7680695 -0.03721856 3.53636441 -0.06383705 5.3046875 -0.0859375 C6.28937012 -0.10188965 7.27405273 -0.1178418 8.28857422 -0.13427734 C11.59809305 0.02961923 13.49727508 0.83097174 16 3 C17.20593342 5.41186685 17.12318918 6.91233077 17.12025452 9.60635376 C17.12162918 10.5767308 17.12300385 11.54710785 17.12442017 12.54689026 C17.12082489 13.61503464 17.11722961 14.68317902 17.11352539 15.78369141 C17.11367142 16.90564407 17.11381744 18.02759674 17.1139679 19.18354797 C17.11326909 22.90623889 17.10547815 26.62888028 17.09765625 30.3515625 C17.09579196 32.92703219 17.09436811 35.50250224 17.09336853 38.07797241 C17.0899355 44.17300322 17.08204739 50.26801347 17.07201904 56.36303651 C17.06085056 63.30127972 17.0553456 70.23952376 17.05032361 77.17777371 C17.03986458 91.45185876 17.02226971 105.72592874 17 120 C15.57178102 120.03396478 14.14332608 120.05809219 12.71484375 120.078125 C11.91941162 120.09262695 11.12397949 120.10712891 10.30444336 120.12207031 C6.94718896 119.9442308 4.75227436 118.879602 2 117 C0.11336089 114.01598819 -0.24828209 111.7269398 -0.24050903 108.22906494 C-0.24325836 107.27276688 -0.24600769 106.31646881 -0.24884033 105.33119202 C-0.24164978 104.28893967 -0.23445923 103.24668732 -0.22705078 102.17285156 C-0.22734283 101.07011398 -0.22763489 99.9673764 -0.22793579 98.83122253 C-0.22654184 95.1842768 -0.21097729 91.53753507 -0.1953125 87.890625 C-0.19158261 85.36285514 -0.18873552 82.83508383 -0.18673706 80.30731201 C-0.17987956 74.33273062 -0.16411469 68.35823687 -0.14403808 62.3836906 C-0.12167481 55.58083555 -0.11068458 48.77797698 -0.10064721 41.97509432 C-0.07974831 27.98335565 -0.04457501 13.99168184 0 0 Z " transform="translate(1422,54)" style=""/><path d="M0 0 C3.96 0 7.92 0 12 0 C12 6.93 12 13.86 12 21 C17.94 21 23.88 21 30 21 C30 14.07 30 7.14 30 0 C33.96 0 37.92 0 42 0 C42 17.82 42 35.64 42 54 C38.04 54 34.08 54 30 54 C30 46.74 30 39.48 30 32 C24.06 32 18.12 32 12 32 C12 39.26 12 46.52 12 54 C8.04 54 4.08 54 0 54 C0 36.18 0 18.36 0 0 Z " transform="translate(908,253)" style=""/><path d="M0 0 C4.95 0 9.9 0 15 0 C17.40918728 6.72379153 19.81175054 13.44989915 22.20825195 20.17822266 C23.02415011 22.46597841 23.84184292 24.75309497 24.66137695 27.03955078 C25.84019742 30.32938208 27.01250864 33.62147095 28.18359375 36.9140625 C28.55028671 37.93303619 28.91697968 38.95200989 29.29478455 40.00186157 C30.94305162 44.65462996 32.44068947 49.06490712 33 54 C29.04 54 25.08 54 21 54 C20.01 50.7 19.02 47.4 18 44 C8.1 44.495 8.1 44.495 -2 45 C-2.99 47.97 -3.98 50.94 -5 54 C-9.29 54 -13.58 54 -18 54 C-16.63095135 47.18213771 -14.67070117 40.8104163 -12.3046875 34.27734375 C-11.77622726 32.79821251 -11.77622726 32.79821251 -11.23709106 31.28919983 C-10.12142589 28.17013639 -8.99834441 25.05380487 -7.875 21.9375 C-7.11278773 19.81072368 -6.35106407 17.68377218 -5.58984375 15.55664062 C-3.73220593 10.36905113 -1.86791653 5.1838968 0 0 Z M7 16 C6.16080602 18.26882087 5.32848276 20.53977027 4.5 22.8125 C4.26152344 23.45509766 4.02304688 24.09769531 3.77734375 24.75976562 C2.72931254 27.64933739 2 29.90076061 2 33 C5.96 33 9.92 33 14 33 C13.2175752 30.35110382 12.42462432 27.70620175 11.625 25.0625 C11.40328125 24.30775391 11.1815625 23.55300781 10.953125 22.77539062 C10.36037548 20.83152088 9.68548828 18.91313548 9 17 C8.34 16.67 7.68 16.34 7 16 Z " transform="translate(1185,253)" style=""/><path d="M0 0 C4.95 0 9.9 0 15 0 C17.56947025 7.20613399 20.13280783 14.41440807 22.69042969 21.62475586 C23.56178301 24.07848292 24.43482371 26.53161144 25.30957031 28.98413086 C26.56496778 32.50479485 27.8143264 36.02755076 29.0625 39.55078125 C29.45622803 40.65086014 29.84995605 41.75093903 30.25561523 42.88435364 C30.79617554 44.41560127 30.79617554 44.41560127 31.34765625 45.9777832 C31.66742432 46.87713089 31.98719238 47.77647858 32.31665039 48.70307922 C33 51 33 51 33 54 C29.04 54 25.08 54 21 54 C20.01 50.7 19.02 47.4 18 44 C8.1 44.495 8.1 44.495 -2 45 C-2.99 47.97 -3.98 50.94 -5 54 C-9.29 54 -13.58 54 -18 54 C-16.63095135 47.18213771 -14.67070117 40.8104163 -12.3046875 34.27734375 C-11.77622726 32.79821251 -11.77622726 32.79821251 -11.23709106 31.28919983 C-10.12142589 28.17013639 -8.99834441 25.05380487 -7.875 21.9375 C-7.11278773 19.81072368 -6.35106407 17.68377218 -5.58984375 15.55664062 C-3.73220593 10.36905113 -1.86791653 5.1838968 0 0 Z M7 15 C6.16112944 17.43572059 5.32873471 19.87333217 4.5 22.3125 C4.26152344 23.00279297 4.02304687 23.69308594 3.77734375 24.40429688 C2.76791737 27.38931489 2 29.82658914 2 33 C5.96 33 9.92 33 14 33 C12.02 27.06 10.04 21.12 8 15 C7.67 15 7.34 15 7 15 Z " transform="translate(998,253)" style=""/><path d="M0 0 C4.95 0 9.9 0 15 0 C15.6290625 1.76601562 16.258125 3.53203125 16.90625 5.3515625 C17.54351549 7.13860593 18.18078679 8.92564728 18.81817627 10.71264648 C19.27187615 11.98516681 19.72528709 13.25779018 20.17840576 14.53051758 C22.56684013 21.23889722 24.96709684 27.94130285 27.4453125 34.6171875 C27.81462891 35.61540527 28.18394531 36.61362305 28.56445312 37.64208984 C29.25822521 39.51163312 29.95723805 41.37924204 30.66210938 43.24462891 C30.97212891 44.08171387 31.28214844 44.91879883 31.6015625 45.78125 C31.87307129 46.50376953 32.14458008 47.22628906 32.42431641 47.97070312 C33 50 33 50 33 54 C29.04 54 25.08 54 21 54 C20.01 50.7 19.02 47.4 18 44 C8.1 44.495 8.1 44.495 -2 45 C-2.99 47.97 -3.98 50.94 -5 54 C-9.29 54 -13.58 54 -18 54 C-17.28122511 50.40612553 -16.51712499 47.34909164 -15.32592773 43.93432617 C-14.81551186 42.46336739 -14.81551186 42.46336739 -14.29478455 40.96269226 C-13.92809158 39.9166835 -13.56139862 38.87067474 -13.18359375 37.79296875 C-12.61971703 36.17217155 -12.61971703 36.17217155 -12.04444885 34.51863098 C-10.84521046 31.07383915 -9.64141693 27.63065918 -8.4375 24.1875 C-7.62274598 21.84971422 -6.80828931 19.51182479 -5.99414062 17.17382812 C-3.99953998 11.44801101 -2.00085304 5.72363509 0 0 Z M7 16 C6.16301614 18.45714547 5.33027576 20.91558857 4.5 23.375 C4.26152344 24.07367188 4.02304687 24.77234375 3.77734375 25.4921875 C2.46264088 29.16403079 2.46264088 29.16403079 2 33 C5.96 33 9.92 33 14 33 C12.31108451 27.12900806 10.53630629 21.55571853 8 16 C7.67 16 7.34 16 7 16 Z " transform="translate(736,253)" style=""/><path d="M0 0 C4.95 0 9.9 0 15 0 C17.56947025 7.20613399 20.13280783 14.41440807 22.69042969 21.62475586 C23.56178301 24.07848292 24.43482371 26.53161144 25.30957031 28.98413086 C26.56496778 32.50479485 27.8143264 36.02755076 29.0625 39.55078125 C29.45622803 40.65086014 29.84995605 41.75093903 30.25561523 42.88435364 C30.79617554 44.41560127 30.79617554 44.41560127 31.34765625 45.9777832 C31.66742432 46.87713089 31.98719238 47.77647858 32.31665039 48.70307922 C33 51 33 51 33 54 C29.04 54 25.08 54 21 54 C20.01 50.7 19.02 47.4 18 44 C8.1 44.495 8.1 44.495 -2 45 C-2.99 47.97 -3.98 50.94 -5 54 C-9.29 54 -13.58 54 -18 54 C-16.63095135 47.18213771 -14.67070117 40.8104163 -12.3046875 34.27734375 C-11.77622726 32.79821251 -11.77622726 32.79821251 -11.23709106 31.28919983 C-10.12142589 28.17013639 -8.99834441 25.05380487 -7.875 21.9375 C-7.11278773 19.81072368 -6.35106407 17.68377218 -5.58984375 15.55664062 C-3.73220593 10.36905113 -1.86791653 5.1838968 0 0 Z M7 15 C6.16112944 17.43572059 5.32873471 19.87333217 4.5 22.3125 C4.26152344 23.00279297 4.02304687 23.69308594 3.77734375 24.40429688 C2.76791737 27.38931489 2 29.82658914 2 33 C5.96 33 9.92 33 14 33 C12.02 27.06 10.04 21.12 8 15 C7.67 15 7.34 15 7 15 Z " transform="translate(618,253)" style=""/><path d="M0 0 C1.93166016 0.01740234 1.93166016 0.01740234 3.90234375 0.03515625 C5.19269531 0.04417969 6.48304688 0.05320313 7.8125 0.0625 C8.81152344 0.07410156 9.81054688 0.08570313 10.83984375 0.09765625 C15.14698915 9.8782823 18.68902802 19.89537627 22.19848633 29.98291016 C23.16305752 32.75342922 24.13488946 35.5213293 25.10742188 38.2890625 C25.72308459 40.0506316 26.33833458 41.81234502 26.953125 43.57421875 C27.38894646 44.81469467 27.38894646 44.81469467 27.83357239 46.08023071 C29.83984375 51.86732101 29.83984375 51.86732101 29.83984375 54.09765625 C25.87984375 54.09765625 21.91984375 54.09765625 17.83984375 54.09765625 C14.83984375 47.47265625 14.83984375 47.47265625 14.83984375 44.09765625 C7.90984375 44.09765625 0.97984375 44.09765625 -6.16015625 44.09765625 C-7.15015625 47.39765625 -8.14015625 50.69765625 -9.16015625 54.09765625 C-13.45015625 54.09765625 -17.74015625 54.09765625 -22.16015625 54.09765625 C-20.56309733 49.2812954 -18.9638539 44.46566675 -17.36279297 39.65063477 C-16.82121211 38.02093968 -16.28017477 36.39106385 -15.73974609 34.76098633 C-12.82690515 25.97635708 -9.88125224 17.20440128 -6.82421875 8.46875 C-6.57110931 7.74003189 -6.31799988 7.01131378 -6.05722046 6.26051331 C-3.89226571 0.12028015 -3.89226571 0.12028015 0 0 Z M3.83984375 16.09765625 C1.51653391 21.70292319 -0.62761269 27.22290593 -2.16015625 33.09765625 C1.79984375 33.09765625 5.75984375 33.09765625 9.83984375 33.09765625 C9.19067912 27.09288346 6.98189372 21.69687525 4.83984375 16.09765625 C4.50984375 16.09765625 4.17984375 16.09765625 3.83984375 16.09765625 Z " transform="translate(871.16015625,252.90234375)" style=""/><path d="M0 0 C4.62 0 9.24 0 14 0 C16.895042 6.3142415 19.39959024 12.65324007 21.671875 19.21484375 C21.99915588 20.15179581 22.32643677 21.08874786 22.66363525 22.05409241 C23.34776843 24.01563784 24.03001784 25.97784122 24.71044922 27.94067383 C25.75612295 30.95515129 26.80929006 33.96693755 27.86328125 36.97851562 C28.52908989 38.89047042 29.19447009 40.80257448 29.859375 42.71484375 C30.17493347 43.6168602 30.49049194 44.51887665 30.81561279 45.44822693 C31.10301331 46.27991898 31.39041382 47.11161102 31.68652344 47.96850586 C32.06813629 49.06696083 32.06813629 49.06696083 32.4574585 50.18760681 C33 52 33 52 33 54 C29.04 54 25.08 54 21 54 C18 47.375 18 47.375 18 44 C11.07 44 4.14 44 -3 44 C-3.66 46.97 -4.32 49.94 -5 53 C-6 54 -6 54 -8.72265625 54.09765625 C-9.82480469 54.08605469 -10.92695312 54.07445312 -12.0625 54.0625 C-13.16722656 54.05347656 -14.27195312 54.04445313 -15.41015625 54.03515625 C-16.69212891 54.01775391 -16.69212891 54.01775391 -18 54 C-17.39671916 47.80840554 -15.55249087 42.37337546 -13.4375 36.54296875 C-13.0861499 35.55879471 -12.7347998 34.57462067 -12.37280273 33.56062317 C-11.25472204 30.43399169 -10.12734416 27.3108017 -9 24.1875 C-8.24160749 22.06856688 -7.48378882 19.94942828 -6.7265625 17.83007812 C-5.34314968 13.96780105 -3.9594499 10.10564117 -2.56640625 6.24682617 C-2.14790405 5.08602791 -2.14790405 5.08602791 -1.72094727 3.90177917 C-1 2 -1 2 0 0 Z M7 16 C4.67669016 21.60526694 2.53254356 27.12524968 1 33 C4.96 33 8.92 33 13 33 C11.7915371 27.05064416 10.25422333 21.63555833 8 16 C7.67 16 7.34 16 7 16 Z " transform="translate(1240,253)" style=""/><path d="M0 0 C3.96 0 7.92 0 12 0 C12 6.93 12 13.86 12 21 C17.94 21 23.88 21 30 21 C30 14.07 30 7.14 30 0 C33.63 0 37.26 0 41 0 C41 17.82 41 35.64 41 54 C37.37 54 33.74 54 30 54 C30 46.74 30 39.48 30 32 C24.06 32 18.12 32 12 32 C12 39.26 12 46.52 12 54 C8.04 54 4.08 54 0 54 C0 36.18 0 18.36 0 0 Z " transform="translate(1389,253)" style=""/><path d="M0 0 C3.96 0 7.92 0 12 0 C12 6.93 12 13.86 12 21 C17.94 21 23.88 21 30 21 C30 14.07 30 7.14 30 0 C33.63 0 37.26 0 41 0 C41 17.82 41 35.64 41 54 C37.37 54 33.74 54 30 54 C30 46.74 30 39.48 30 32 C24.06 32 18.12 32 12 32 C12 39.26 12 46.52 12 54 C8.04 54 4.08 54 0 54 C0 36.18 0 18.36 0 0 Z " transform="translate(1118,253)" style=""/><path d="M0 0 C13.2 0 26.4 0 40 0 C40 3.63 40 7.26 40 11 C35.38 11 30.76 11 26 11 C26 25.19 26 39.38 26 54 C22.04 54 18.08 54 14 54 C14 39.81 14 25.62 14 11 C9.38 11 4.76 11 0 11 C0 7.37 0 3.74 0 0 Z " transform="translate(1341,253)" style=""/><path d="M0 0 C13.2 0 26.4 0 40 0 C40 3.63 40 7.26 40 11 C35.38 11 30.76 11 26 11 C26 25.19 26 39.38 26 54 C22.04 54 18.08 54 14 54 C14 39.81 14 25.62 14 11 C9.38 11 4.76 11 0 11 C0 7.37 0 3.74 0 0 Z " transform="translate(1070,253)" style=""/><path d="M0 0 C13.2 0 26.4 0 40 0 C40 3.63 40 7.26 40 11 C35.38 11 30.76 11 26 11 C26 25.19 26 39.38 26 54 C22.04 54 18.08 54 14 54 C14 39.81 14 25.62 14 11 C9.38 11 4.76 11 0 11 C0 7.37 0 3.74 0 0 Z " transform="translate(769,253)" style=""/><path d="M0 0 C3.96 0 7.92 0 12 0 C12.07443429 5.71082747 12.12873634 11.4213694 12.16479492 17.13256836 C12.17983491 19.07337364 12.20027214 21.0141452 12.22631836 22.95483398 C12.26291295 25.75252632 12.27977448 28.54976733 12.29296875 31.34765625 C12.30845261 32.2083522 12.32393646 33.06904816 12.33988953 33.95582581 C12.34177222 40.77162651 11.11684599 45.42545758 6.6875 50.8125 C1.46984198 55.05943094 -3.70484605 55.4499011 -10.24609375 55.31640625 C-15.8406946 54.67362232 -19.58523398 52.38025954 -23.5625 48.5 C-25 46 -25 46 -25.1875 43.9375 C-23.1793548 40.66105256 -20.45992397 39.61065426 -17 38 C-14 39 -14 39 -12.8125 40.5625 C-9.74561729 42.99485525 -6.81926638 42.30311638 -3 42 C0.08643773 38.91356227 -0.64134992 35.20240583 -0.5859375 31.0546875 C-0.56657135 30.1696756 -0.5472052 29.2846637 -0.5272522 28.37283325 C-0.46737277 25.54032084 -0.42103787 22.70776797 -0.375 19.875 C-0.33682789 17.95701332 -0.29777662 16.03904393 -0.2578125 14.12109375 C-0.16166445 9.41420252 -0.07766458 4.70723104 0 0 Z " transform="translate(832,253)" style=""/><path d="M0 0 C3.96 0 7.92 0 12 0 C12 14.19 12 28.38 12 43 C18.6 43 25.2 43 32 43 C32 46.63 32 50.26 32 54 C21.44 54 10.88 54 0 54 C0 36.18 0 18.36 0 0 Z " transform="translate(1280,253)" style=""/><path d="M0 0 C3.96 0 7.92 0 12 0 C12 14.19 12 28.38 12 43 C18.27 43 24.54 43 31 43 C31 46.63 31 50.26 31 54 C20.77 54 10.54 54 0 54 C0 36.18 0 18.36 0 0 Z " transform="translate(1039,253)" style=""/><path d="M0 0 C3.96 0 7.92 0 12 0 C12 14.19 12 28.38 12 43 C18.27 43 24.54 43 31 43 C31 46.63 31 50.26 31 54 C20.77 54 10.54 54 0 54 C0 36.18 0 18.36 0 0 Z " transform="translate(659,253)" style=""/><path d="M0 0 C3.96 0 7.92 0 12 0 C12 17.82 12 35.64 12 54 C8.04 54 4.08 54 0 54 C0 36.18 0 18.36 0 0 Z " transform="translate(1321,253)" style=""/><path d="M0 0 C3.96 0 7.92 0 12 0 C12 17.82 12 35.64 12 54 C8.04 54 4.08 54 0 54 C0 36.18 0 18.36 0 0 Z " transform="translate(699,253)" style=""/><path d="M0 0 C3.0965287 2.89009346 3.83262735 5.81568369 4 10 C2.47126129 13.97472063 1.57219503 15.61853665 -2 18 C-6.41034167 18.71027974 -9.99365848 18.50317076 -14 16.5 C-16.71079842 13.11150197 -17.27400797 10.29849998 -17 6 C-15.62703691 2.13854132 -14.28654546 1.17082518 -10.75 -0.9375 C-6.27352697 -2.20583402 -4.22446407 -1.86851295 0 0 Z " transform="translate(864,58)" style=""/><path d="M0 0 C2.50826863 3.54108513 2.87481158 5.58302217 2.59765625 9.83984375 C2.125 12 2.125 12 0.1875 15.0625 C-3.91640419 17.65884755 -7.13774904 17.95259938 -11.875 17 C-14.74529869 15.20606332 -16.36631638 14.01736724 -17.875 11 C-18.36902148 6.71848048 -18.29066259 4.01022795 -15.625 0.625 C-10.61327253 -4.15892168 -5.74458779 -3.99623499 0 0 Z " transform="translate(678.875,59)" style=""/><path d="M0 0 C2.8100346 1.79363911 4.50940468 3.01880935 6 6 C6.37340899 10.94766914 6.22237243 14.11092983 3 18 C-0.05287544 19.8656461 -1.90438162 20.00170747 -5.5 19.9375 C-9.80931118 18.78322022 -11.4370871 17.65020929 -14 14 C-14.64643474 11.19311232 -14.62988925 8.80896558 -14 6 C-10.32759145 0.24655994 -6.71744997 -0.96515086 0 0 Z " transform="translate(850,77)" style=""/><path d="M0 0 C3.37882179 2.3933321 4.67073608 4.03278722 6 7.9375 C6 11.74724203 5.033189 13.80498871 3 17 C-1.04608511 19.69739007 -4.25135247 19.64981493 -9 19 C-12.06818718 17.46590641 -13.52410348 16.42471519 -14.625 13.12890625 C-15.27370292 9.55428284 -15.21706992 7.49926082 -13.75 4.125 C-9.85390425 -0.60597341 -5.75771397 -0.9798215 0 0 Z " transform="translate(687,77)" style=""/><path d="M0 0 C3.06818718 1.53409359 4.52410348 2.57528481 5.625 5.87109375 C6.25655114 9.35120365 6.20134191 11.49664523 4.875 14.8125 C2.68318613 17.36961619 1.13095521 18.71915469 -2 20 C-6.24773336 20 -8.42070506 19.39441358 -11.9375 17 C-14.36940247 13.46268732 -14.74720913 11.37700683 -14.47265625 7.16015625 C-14 5 -14 5 -12.0625 1.9375 C-7.93015156 -0.67684289 -4.7641517 -0.90622451 0 0 Z " transform="translate(664,77)" style=""/><path d="M0 0 C2.50826863 3.54108513 2.87481158 5.58302217 2.59765625 9.83984375 C2.125 12 2.125 12 0.1875 15.0625 C-3.94484844 17.67684289 -7.1108483 17.90622451 -11.875 17 C-14.94318718 15.46590641 -16.39910348 14.42471519 -17.5 11.12890625 C-18.15530334 7.51791181 -18.10838592 5.5112263 -16.5625 2.125 C-11.80792794 -3.86223889 -6.44342556 -4.482383 0 0 Z " transform="translate(1299.875,79)" style=""/><path d="M0 0 C3.4696382 3.10052776 4.83387437 4.94787101 5.5625 9.5625 C4.91429589 13.52374737 3.81200626 15.18799374 1 18 C-2.20173254 19.60086627 -5.52577059 19.49917089 -9 19 C-11.8100346 17.20636089 -13.50940468 15.98119065 -15 13 C-15.69948799 5.88853879 -15.69948799 5.88853879 -12.6875 2.0625 C-8.25878589 -1.3362806 -5.33411896 -1.37951352 0 0 Z " transform="translate(1275,77)" style=""/><path d="M0 0 C3.66304688 2.51834473 4.75360451 4.20283811 6.0625 8.4375 C5.98541095 12.83157589 4.78058336 14.66329997 2 18 C-1.48068998 19.74034499 -5.20257598 19.58371457 -9 19 C-12.06626454 16.76418211 -13.5346273 15.10526016 -15 11.625 C-15 7.86112694 -13.74270569 5.29869292 -12 2 C-7.97500157 -0.68333228 -4.72857864 -0.79639219 0 0 Z " transform="translate(873,77)" style=""/><path d="M0 0 C2.8100346 1.79363911 4.50940468 3.01880935 6 6 C6.51899581 10.49796366 6.31754808 12.49565893 3.875 16.375 C0.67745373 19.29449877 -0.71513103 20 -5 20 C-8.31258497 19.21128929 -9.83219476 18.15873468 -12.3125 15.8125 C-14.48074603 12.19875662 -14.59337198 10.15360383 -14 6 C-10.26747896 0.27680107 -6.74763808 -0.96948823 0 0 Z " transform="translate(1195,185)" style=""/></svg>