<svg viewBox="176.47 205.14 647.07 589.66" version="1.1" id="Layer_1" xmlns="http://www.w3.org/2000/svg">
  
  <defs>
    <style>
      .st0, .st1 {
        fill: #212121;
      }

      .st1 {
        fill-rule: evenodd;
      }
    </style>
  </defs>
  <g>
    <g>
      <path d="M234.4,771h-8v-2.6h18.8v2.6h-7.9v23.4h-2.9v-23.4h0Z" class="st0"></path>
      <path d="M291.6,771v9h10.7v2.5h-10.7v9.4h12.9v2.6h-15.8v-26h15.8v2.6h-12.9v-.1Z" class="st0"></path>
      <path d="M351.9,793.3c-1.4-1-2.4-2.4-2.9-4.3-.5-1.9-.8-4.4-.8-7.6s.3-5.6.8-7.5,1.5-3.4,2.9-4.4,3.4-1.5,6-1.5c2,0,4.4.3,7,.8l-.1,2.4c-2.5-.4-4.7-.7-6.5-.7-2,0-3.4.4-4.4,1.1-1,.7-1.7,1.8-2,3.4-.4,1.6-.5,3.8-.5,6.8,0,2.6.2,4.6.5,6s1,2.5,2.1,3.3c1.1.7,2.6,1.1,4.8,1.1,1.7,0,3.8-.2,6.2-.7l.1,2.5c-2.6.5-4.9.8-6.9.8-2.8,0-4.9-.5-6.3-1.5Z" class="st0"></path>
      <path d="M428.5,768.4v26h-2.9v-11.8h-13.2v11.8h-2.9v-26h2.9v11.7h13.2v-11.7h2.9Z" class="st0"></path>
      <path d="M523.2,794.1l-1.4-.2.3-2.4c3.4.4,6,.7,7.8.7,3.7,0,5.6-1.7,5.6-5.2,0-1-.2-1.7-.5-2.3s-.9-1-1.7-1.4-2-.7-3.6-1c-2.1-.4-3.7-.9-4.8-1.5s-2-1.3-2.5-2.2-.8-2.2-.8-3.7c0-4.7,2.8-7,8.4-7,1.9,0,4.6.3,7.9.8l-.3,2.4c-3.6-.4-6.1-.6-7.4-.6-3.8,0-5.6,1.4-5.6,4.3,0,1.1.2,1.9.5,2.5.4.6,1,1,1.9,1.4s2.3.7,4.2,1.2c1.9.4,3.3.9,4.3,1.4s1.8,1.2,2.2,2.1c.5.9.7,2,.7,3.4,0,5.3-2.8,8-8.3,8-1.8,0-4.1-.2-6.9-.7Z" class="st0"></path>
      <path d="M588.6,771h-8v-2.6h18.8v2.6h-7.9v23.4h-2.9v-23.4h0Z" class="st0"></path>
      <path d="M645.3,793.4c-1.5-.9-2.6-2.4-3.2-4.3-.6-1.9-1-4.5-1-7.6s.3-5.7,1-7.7,1.7-3.4,3.2-4.4,3.5-1.5,6.1-1.5,4.6.5,6.1,1.5,2.6,2.4,3.3,4.4,1,4.5,1,7.7-.3,5.7-1,7.6c-.6,1.9-1.7,3.3-3.2,4.2s-3.5,1.4-6.1,1.4c-2.6.1-4.6-.3-6.2-1.3ZM655.9,791.2c1-.7,1.8-1.8,2.2-3.3s.6-3.6.6-6.3-.2-4.8-.7-6.4c-.4-1.6-1.2-2.8-2.2-3.5-1.1-.8-2.5-1.2-4.4-1.2s-3.3.4-4.4,1.1c-1.1.8-1.8,1.9-2.2,3.5s-.7,3.7-.7,6.3.2,4.7.6,6.3c.4,1.5,1.2,2.7,2.2,3.4,1.1.7,2.6,1.1,4.5,1.1,2,.1,3.5-.3,4.5-1Z" class="st0"></path>
      <path d="M707,768.4h9.6c2.8,0,4.9.6,6.2,1.9,1.4,1.3,2.1,3.3,2.1,6,0,4-1.6,6.6-4.8,7.6l5,10.6h-3.2l-4.7-10h-7.4v10h-2.8v-26.1ZM716.6,781.9c3.5,0,5.3-1.8,5.3-5.5s-1.8-5.5-5.3-5.5h-6.7v11h6.7Z" class="st0"></path>
      <path d="M772.9,771v9h10.7v2.5h-10.7v9.4h12.9v2.6h-15.8v-26h15.8v2.6h-12.9v-.1Z" class="st0"></path>
    </g>
    <g>
      <path d="M224.2,731.1l-4.9,13.9h-27.9l34.8-97.5h27.9l34.9,97.5h-27.9l-4.9-13.9h-32ZM249.6,703.2l-9.4-27.9-9.2,27.9h18.6Z" class="st0"></path>
      <path d="M295.9,647.5h27.9v69.7h48.8v27.8h-76.6v-97.5h-.1Z" class="st0"></path>
      <path d="M442.8,647.5v97.5h-27.9v-97.5h27.9Z" class="st0"></path>
      <path d="M508.7,675.3v69.7h-27.9v-69.7h-31.1v-27.9h90.6v27.9h-31.6Z" class="st0"></path>
      <path d="M582.1,703.2l-34.8-55.7h29.7l19,27.9,19-27.9h29.7l-34.8,55.7v41.8h-27.9v-41.8h.1Z" class="st0"></path>
      <path d="M652.8,731.1l-4.9,13.9h-27.9l34.8-97.5h27.9l34.8,97.5h-27.9l-4.9-13.9h-31.9ZM678.2,703.2l-9.4-27.9-9.2,27.9h18.6Z" class="st0"></path>
      <path d="M752.4,696.2v48.8h-27.9v-97.5h27.9l34.8,48.8v-48.8h27.9v97.5h-27.9l-34.8-48.8Z" class="st0"></path>
    </g>
  </g>
  <path d="M772.3,350.9c-1.1-1.4-2.6-2.5-4.2-3.3,1.2-46.5-36.6-80.2-77.5-76.5-13.6-49.5-61.7-71.2-102.2-64.9v1.2c-2.6-.5-5.6-.8-8.8-.8-10.4,0-25.3,2.7-38.9,9-14.5,6.7-27.8,17.6-33.7,33.8-2.1,5.6-3.2,11.7-3.2,18.4v335.9h305.1c12.3-32.4,11-68.9-.4-100.9,31-62.6,11.7-124.4-36.2-151.9ZM530.2,267.8c0-3.5.6-6.6,1.6-9.3,3.2-8.6,11.1-14.8,20-18.9,2.9-1.3,5.8-2.4,8.7-3.3-1.5,2.8-2.8,5.8-3.9,8.8-7,18.9-6.7,42-.4,60.3,3.2,9.2,2.9,16.9.4,22.8-1.2,2.8-2.9,5.2-4.9,7-2,1.9-4.3,3.2-6.7,4.1-3.8,1.3-8,1.3-11.9-.3-1-.4-2-.7-3-.9v-70.3h.1ZM530.2,424h5.5c42.3,21.1,32.3,71.4,32.3,71.5-1.3,7,3.4,13.7,10.4,15s13.7-3.4,15-10.4c0-.2,10.7-53.5-26.6-86.5,1.6-.6,3.1-1.2,4.6-1.9,17.5-7.7,31.1-20.3,35.7-32.9,2.4-6.7-1-14.1-7.7-16.5s-14.1,1-16.5,7.7c-2.2,6.2-10.6,13.1-21.9,18-7.6,3.4-16.3,5.6-25.2,5.9h-5.5v-29c7.9,1.8,15.9,1.2,23.3-1.4,5.8-2,11.2-5.3,15.8-9.6,4.5-4.3,8.3-9.6,11-15.8,4.8-11.3,5.7-25.4.2-41.2-4.5-13-4.7-29.5.3-43,1.8-4.9,4.3-9.3,7.4-12.7,2.9-3.2,6.4-5.7,10.6-7.2,7.1-2.5,16.6-2.2,28.7,2.3,1.1.4,2.2.7,3.4.7,11.1,5,21,13.2,27.8,24.4,3,5,5.4,10.5,7,16.3l5.7,20.8,21.3-1.9c1.7-.1,3.5-.2,5.4-.1,10.9.4,21.2,5,29.1,12.6,7.9,7.6,13.4,18.1,14.7,30.3-17.3-3-32.5-.6-45.2,5.1-3.8,1.7-7.4,3.7-10.7,6-6.1,2.5-12.1,2.3-17.1.5-2.5-.9-4.7-2.2-6.6-3.8-1.7-1.5-3.1-3.2-3.9-4.9-1.1-2.4-1.4-5-.5-7.7,2.4-6.7-1-14.1-7.7-16.5s-14.1,1-16.5,7.7c-3.5,9.7-2.6,19.3,1.5,27.7,2.4,5,6,9.6,10.3,13.3,4.1,3.6,9.1,6.5,14.7,8.5,1.1.4,2.2.8,3.3,1.1-.8,1.5-1.5,3-2.2,4.6-7.4,16.9-8,36.3-.7,52.4,2.9,6.5,10.6,9.4,17.1,6.5s9.4-10.6,6.5-17.1c-4.3-9.4-3.7-21.1.9-31.5,2.1-4.9,5.1-9.5,8.9-13.4,1.6-1.6,3.3-3.1,5.1-4.5l.7-.3c1.4-.7,2.6-1.5,3.6-2.6,1.3-.8,2.7-1.5,4.2-2.2,10.9-4.9,25-5.9,42-.2l6.9,3.5c19.5,10,33.1,27.3,38.6,48.4,5.5,21,2.9,45.9-9.8,71.4l-4.9,9.8,3.7,10.3.3.8c7.7,21.7,9.7,45.9,4.6,68.4h-154.7c-1.1-5.9-1.1-12.2-.1-18.4,1.5-8.8,5-17.3,10.5-23.8,9.1-10.8,24.3-16.5,45.2-9.5,32,10.6,54.2,3.2,67.8-11.9,7.9-8.8,12.6-20.1,14.3-31.9,1.7-11.3.7-23.3-2.6-33.9-6.4-20.5-21.3-36.4-42.9-36.4-7.1,0-12.9,5.8-12.9,12.9s5.8,12.9,12.9,12.9c8.6,0,15.1,8,18.3,18.2,2.2,7,2.8,14.9,1.7,22.5-1,7-3.6,13.6-8,18.4-7.2,7.9-20.2,11.4-40.5,4.6-32.9-10.9-57.6-.9-73.1,17.5-8.5,10.2-14,23-16.1,36.3-1.2,7.5-1.4,15.1-.5,22.6h-23.4c4-16.5,3.7-32.1-9.5-45.4-5.6-5.7-12.6-9.7-20.1-12-8-2.4-16.7-2.8-25.1-1v-98.4h-.1ZM548,547.9c3.5,1,6.7,2.9,9.2,5.4,4.9,4.9,4.2,15.1,1.3,27.3h-28.3v-31.3c5.7-2.7,12.1-3.1,17.8-1.4Z" class="st0"></path>
  <path d="M289.5,262.9c-26.9,20.5-51.5,41.3-68.7,56.3,8.4-32.8,36.8-55.5,68.7-56.3Z" class="st1"></path>
  <path d="M195.5,539.3c-4.7,0-9-3-10.6-7.6-1.9-5.8,1.2-12.1,7-14,.7-.2,46-16.2,106.9-80.2,4.2-4.4,11.2-4.6,15.7-.4,4.4,4.2,4.6,11.2.4,15.7-65.3,68.8-114,85.4-116,86-1.1.3-2.3.5-3.4.5Z" class="st1"></path>
  <path d="M335.4,289c-15.4,11.6-31.3,25.3-48,41.2-46.5,44.4-91.9,85-92.4,85.4-2.1,1.9-4.8,2.8-7.4,2.8-3,0-6.1-1.3-8.3-3.7-4.1-4.6-3.7-11.6.9-15.7.4-.4,45.6-40.7,91.8-84.9,16.2-15.5,31.8-29,47-40.6" class="st1"></path>
  <path d="M430.5,457.2c-1.6,2.4-40.7,60.1-98.1,105-15.8,12.3-39.9,27.4-61.6,40.2h-44.7c23.6-13.2,68.9-39.2,92.6-57.7,54.7-42.7,93-99.3,93.4-99.9,3.4-5.1,10.3-6.5,15.4-3,5.1,3.4,6.5,10.3,3,15.4Z" class="st1"></path>
  <path d="M482.4,235.9c-28.5-2.2-57.5,3.6-87.9,17.3-5.6,2.5-12.2.1-14.7-5.5s-.1-12.2,5.5-14.7c26-11.8,51.8-18.3,77.1-19.5,8.2,5.7,15.4,13,20,22.4Z" class="st1"></path>
  <path d="M440.9,288.4c-33.7,8.6-69.9,33.5-108.1,74.6-60.3,64.7-135.8,115.8-138.9,118-1.9,1.3-4.1,1.9-6.2,1.9-3.6,0-7.1-1.7-9.2-4.9-3.4-5.1-2.1-12,3-15.4.8-.5,76.6-52,135.1-114.8,44.9-48.3,88.2-76.1,129.2-83.2" class="st1"></path>
  <path d="M341.9,390c48.4-52.6,93-92.7,146.1-74.6v23.9c-41.8-19.2-76.8,8.8-127.7,63.6-1.1,1.2-2.2,2.4-3.4,3.6" class="st1"></path>
  <path d="M488,389.7v153c-14.4,21.2-31.3,41.6-50.3,59.7h-123.6c18.7-13.7,38.8-29.1,58.5-45.2,51.1-41.9,97.5-112.4,97.5-147.9,0-5.8-1.3-9.8-4-12-18.2-14.9-49.5,11-72.5,35.4-5.9,6.3-12.3,14-19.7,23-19.3,23.5-43.4,52.8-76.4,76.2-36,25.6-88,51.4-90.2,52.5-5.5,2.7-12.2.4-14.9-5-2.7-5.5-.5-12.2,5-14.9.5-.3,52.6-26.1,87.2-50.7,30.6-21.7,53.6-49.7,72.1-72.2,7.3-8.9,14.3-17.4,20.6-24.2,42.9-45.5,77.5-58.1,102.8-37.4,2.7,2.3,5.6,5.3,7.9,9.7Z" class="st1"></path>
  <path d="M488,566.8v35.5h-28.1c-.1.1,21.7-22.6,28.1-35.5Z" class="st1"></path>
  <path d="M338.6,439.8c-17.5,0-31.7-14.2-31.7-31.7s14.2-31.7,31.7-31.7,31.7,14.2,31.7,31.7c0,17.4-14.2,31.7-31.7,31.7ZM338.6,398.6c-5.2,0-9.4,4.2-9.4,9.4s4.2,9.4,9.4,9.4,9.4-4.2,9.4-9.4-4.2-9.4-9.4-9.4Z" class="st0"></path>
  <path d="M459.8,302.9c-17.5,0-31.7-14.2-31.7-31.7s14.2-31.7,31.7-31.7,31.7,14.2,31.7,31.7c.1,17.5-14.2,31.7-31.7,31.7ZM459.8,261.8c-5.2,0-9.4,4.2-9.4,9.4s4.2,9.4,9.4,9.4,9.4-4.2,9.4-9.4c.1-5.2-4.2-9.4-9.4-9.4Z" class="st0"></path>
  <path d="M339.7,294.7c-17.5,0-31.7-14.2-31.7-31.7s14.2-31.7,31.7-31.7,31.7,14.2,31.7,31.7c0,17.4-14.2,31.7-31.7,31.7ZM339.7,253.5c-5.2,0-9.4,4.2-9.4,9.4s4.2,9.4,9.4,9.4,9.4-4.2,9.4-9.4-4.2-9.4-9.4-9.4Z" class="st0"></path>
  <path d="M332.3,291.1" class="st1"></path>
</svg>